<svg width="300" height="350" viewBox="0 0 300 350" fill="none" xmlns="http://www.w3.org/2000/svg">
<path d="M63 131C63 86.5894 105.379 48.5553 151 48.0061V0V48.5C163.607 48.6414 176.841 50.9635 188 55.861L185.5 62L176.5 83.5L189 63.5L192.5 57.9523C194.299 58.851 196.015 59.8005 198 61L205 79.1317H215C219.105 83.9635 222.484 89.0886 225.5 94.1123L214 116.5L229.5 101L233 97.5C233.706 98.8991 234.379 100.064 235 101.5L232 107L227 115.5L232.5 109.5L236.5 105.5C239.502 113.572 241 122.151 241 131V137.5L237.5 143.5L173 214.5L237.5 160.5L241 157V169L237.5 173.5L212 200.5L234.5 188L231.5 196.5L237.5 193L241 191V350H300H0H75.5L107 316L84.5 326.5L82 319L63 329.5V193L68.5 188L109 148.5L68.5 176L63 179.5V131Z" fill="white"/>
</svg>
