<svg width="300" height="350" viewBox="0 0 300 350" fill="none" xmlns="http://www.w3.org/2000/svg">
<g opacity="0.2">
<path d="M178.5 266.5L107 302.5L178.5 250L193 220.5L178.5 266.5Z" fill="black"/>
<path d="M219.727 253.171L175.5 276.5L220 241.5L229 224L219.727 253.171Z" fill="black"/>
<path d="M167.5 153.5L153.5 150.5L164 145.5L183 120L167.5 153.5Z" fill="black"/>
<path d="M73.5 209L73 196.5L116.5 142.5L73.5 209Z" fill="black"/>
<path d="M231.5 174.5L165.5 221.5L231.5 170V174.5Z" fill="black"/>
<path d="M227 203L203.5 208L230.5 194L227 203Z" fill="black"/>
<path d="M107.5 350H91L125 304.5L107.5 350Z" fill="black"/>
<path d="M210 350H202.5L216.5 318.5L210 350Z" fill="black"/>
<path d="M191 112.5L165 121.5L189 104L197 84.5L191 112.5Z" fill="black"/>
</g>
<g opacity="0.8">
<path d="M71 131C71 131 78.5 67 152 67C162.923 67 172.388 68.4134 180.587 70.82L186 57.6082C175.605 52.7271 164.066 50 152 50C108 50 71 86.2649 71 131Z" fill="white"/>
<path d="M185.07 72.2769C202.751 78.5993 214.001 89.7043 221.118 100.568L224.195 94.5C221.544 89.3228 218.352 84.4649 214.698 80H204.5L195.5 62.8681C194.499 62.2238 193.484 61.6009 192.455 61L185.07 72.2769Z" fill="white"/>
<path d="M225.222 107.617C226.123 109.366 226.923 111.077 227.633 112.728L229.779 108.5C229.386 107.161 228.96 105.836 228.5 104.527L225.222 107.617Z" fill="white"/>
<path d="M228.698 115.325C232.207 124.31 232.994 130.95 233 131C233 124.881 232.308 118.92 231 113.19L228.698 115.325Z" fill="white"/>
</g>
<g opacity="0.8">
<path d="M176.5 96.5L167.5 115L175.5 95L194 86L176.5 96.5Z" fill="white"/>
<path d="M166 238L123.5 283.5L165.5 237L189 222.5L166 238Z" fill="white"/>
<path d="M86.5 307.5L77 309.5L87 306L92.5 313.5L123 304.5L91.5 315.5L86.5 307.5Z" fill="white"/>
<path d="M212.252 234.91L187 262.5L211.931 234.27L223.5 227.5L212.252 234.91Z" fill="white"/>
<path d="M159 137.5L155 146L158 137L177.5 123L159 137.5Z" fill="white"/>
<path d="M111.5 144L74.5 168V166L111.5 144Z" fill="white"/>
<path d="M177 340L166 349V348.25L177 340Z" fill="white"/>
<path d="M215 318L184 349V346.417L215 318Z" fill="white"/>
<path d="M229.5 145L170 214L229.5 143V145Z" fill="white"/>
</g>
<g opacity="0.8">
<path d="M177 97.5L165 121.5L189 104L197 84.5L177 97.5Z" fill="black"/>
<path d="M160 138L153.5 150.5L164 145.5L183 120L160 138Z" fill="black"/>
<path d="M178.5 250L193 220.5L166 240L107 302.5L178.5 250Z" fill="black"/>
<path d="M220 241.5L228.979 224.02L212.015 236.271L175.5 276.5L220 241.5Z" fill="black"/>
<path d="M178.5 340L166 350H181.5L178.5 340Z" fill="black"/>
<path d="M216.5 318.5L185 350H202.5L216.5 318.5Z" fill="black"/>
<path d="M152 48C110.5 48 63 81.8467 63 131V179.5L109 148.5L68.5 188L63 193V329.5L82 319L84.5 326.5L107 316L75.5 350H91L125 304.5L91 317L86 309L76.5 310.5L73 196.5L116.5 142.5L72.5 171.5L71 131C71 86.2649 108 50 152 50C164.066 50 175.605 52.7271 186 57.6082L171.5 93L192.455 61C193.484 61.6009 194.499 62.2238 195.5 62.8681L204.5 80H214.698C218.352 84.4649 221.544 89.3228 224.195 94.5L210.5 121.5L228.5 104.527C228.96 105.836 229.386 107.161 229.779 108.5L224.195 119.5L231 113.19C232.308 118.92 233 124.881 233 131L232.75 144.5L165.5 221.5L231.5 170V174.5L203.5 208L230.5 194L227 203L231.5 204L230.5 240.5L228 350H241V191L231.5 196.5L234.5 188L212 200.5L237.5 173.5L241 169V157L237.5 160.5L173 214.5L237.5 143.5L241 137.5V131C241 123.45 239.5 113.19 236.5 105.5L227 115.5L235 101.5C234.176 99.4318 233.994 99.4091 233 97.434L214 116.5L225.5 94C222.338 88.9528 219.132 83.2718 215 79H205L197.885 61C196.103 59.9593 194.291 58.9761 192.455 58.0523L176.5 83.5L188 55.9478C176.351 50.796 163.928 48 152 48Z" fill="black"/>
<path d="M112.657 238.172L116.457 220L118 211.5L122 205.5L118 209L118.5 201.5L119 195L122.5 197L119 193.5L118.5 179L117.5 192.5L115 191L117.5 194.5L116.457 204.5L116 210.5L112.5 216L116 213L114.829 220L111.571 238.707L107.771 234.431L111.029 239.776L106.143 242.983L111.029 241.379L108.857 253.672L105.6 260.621L101.257 256.879L105.057 262.224L98 282L106.143 264.362L108.857 269.707L107.229 262.224L110.486 253.672L112.114 241.914L113.743 246.19L112.657 240.31L116.457 235.5L112.657 238.172Z" fill="black"/>
<path d="M195.196 303.831L201.109 302.719L207.328 304.676L203.524 302.072L229.666 298.218L201.558 300.529L194.727 298.218L199.143 301.176L191.769 302.634L185.361 303.833L186.387 299.935L183.912 304.221L170.036 308.457L183.335 305.929L182.533 308.732L185.266 305.411L195.196 303.831Z" fill="black"/>
<path d="M107.032 91.0696L87.3093 81.0305L107.103 92.2776L101.687 94.1201L107.877 93.1929L108.936 98.9403L109.355 93.8153L119.841 100.588L124.981 106.287L119.847 108.837L126.248 107.409L141.734 121.589L128.639 107.239L134.619 106.812L127.09 105.408L120.474 99.0872L110.269 93.0221L114.842 93.181L109.002 91.8994L106.044 86.5303L107.032 91.0696Z" fill="black"/>
</g>
<path d="M67 176.955V189.364L68.5 188L109 148.5L68.5 176L67 176.955Z" fill="#9D0F0F"/>
<path d="M67 327.289V350H75.5L107 316L84.5 326.5L82 319L67 327.289Z" fill="#9D0F0F"/>
<path d="M237 193.292V174.029L212 200.5L234.5 188L231.5 196.5L237 193.292Z" fill="#9D0F0F"/>
<path d="M237 160.919V144.05L173 214.5L237 160.919Z" fill="#9D0F0F"/>
<path d="M233.042 108.958C232.77 108.186 232.485 107.419 232.188 106.656L232 107L227 115.5L232.5 109.5L233.042 108.958Z" fill="#9D0F0F"/>
<path d="M229.636 100.864C227.36 96.2377 224.604 91.8284 221.436 87.6913C222.875 89.8298 224.22 91.9801 225.5 94.1122L214 116.5L229.636 100.864Z" fill="#9D0F0F"/>
<path d="M213.909 79.1317C209.944 75.1877 205.57 71.5965 200.866 68.4247L205 79.1317H213.909Z" fill="#9D0F0F"/>
<path d="M189.891 62.087C188.664 61.4877 187.421 60.915 186.164 60.3699L185.5 62L176.5 83.5L189 63.5L189.891 62.087Z" fill="#9D0F0F"/>
<path d="M177.667 98.7468L169 116L187.778 101.684L195 87L177.667 98.7468Z" fill="#9D0F0F"/>
<path d="M160.333 138.671L156 147L163.5 142L177.5 125.5L160.333 138.671Z" fill="#9D0F0F"/>
<path d="M178.5 243L189 225L166.5 241.5L124 287L178.5 243Z" fill="#9D0F0F"/>
<path d="M220.023 237.452L226 227L213.192 236.581L189 263L220.023 237.452Z" fill="#9D0F0F"/>
<path d="M167.477 350H178V341.5L167.477 350Z" fill="#9D0F0F"/>
<path d="M186 350H198.5L213 323L186 350Z" fill="#9D0F0F"/>
<path d="M67 182.5V189.364L68.5 188L109 148.5L67 182.5Z" fill="url(#paint0_linear_266_5409)"/>
<path d="M67 336.5V350H75.5L107 316L84 332L80 326.5L67 336.5Z" fill="url(#paint1_linear_266_5409)"/>
<path d="M237 193.292V179.5L212 200.5L234.5 188L235 192.5L234 195L237 193.292Z" fill="url(#paint2_linear_266_5409)"/>
<path d="M237 160.919V150.5L173 214.5L237 160.919Z" fill="url(#paint3_linear_266_5409)"/>
<path d="M233.042 108.958C232.77 108.186 232.798 108.263 232.5 107.5L227 115.5L232.5 109.5L233.042 108.958Z" fill="url(#paint4_linear_266_5409)"/>
<path d="M229.636 100.864C227.36 96.2377 224.604 91.8284 221.436 87.6913C222.875 89.8298 225.22 93.8679 226.5 96L214 116.5L229.636 100.864Z" fill="url(#paint5_linear_266_5409)"/>
<path d="M213.909 79.1317C209.944 75.1877 208.203 73.6717 203.5 70.5L205 79.1317H213.909Z" fill="url(#paint6_linear_266_5409)"/>
<path d="M189.891 62.087C188.664 61.4877 188.757 61.5451 187.5 61L176.5 83.5L189 63.5L189.891 62.087Z" fill="url(#paint7_linear_266_5409)"/>
<path d="M179.5 100.5L169 116L187.778 101.684L195 87L179.5 100.5Z" fill="url(#paint8_linear_266_5409)"/>
<path d="M161.5 140L158.5 145.5L163.5 142L177.5 125.5L161.5 140Z" fill="url(#paint9_linear_266_5409)"/>
<path d="M178.5 243L186 230L169 243L124 287L178.5 243Z" fill="url(#paint10_linear_266_5409)"/>
<path d="M220.023 237.452L222.5 233L214 239L189 263L220.023 237.452Z" fill="url(#paint11_linear_266_5409)"/>
<path d="M171.5 350H178V341.5L171.5 350Z" fill="url(#paint12_linear_266_5409)"/>
<path d="M192 350H198.5L213 323L192 350Z" fill="url(#paint13_linear_266_5409)"/>
<defs>
<linearGradient id="paint0_linear_266_5409" x1="152" y1="61" x2="152" y2="350" gradientUnits="userSpaceOnUse">
<stop stop-color="#FF5C52"/>
<stop offset="1" stop-color="#CB0000"/>
</linearGradient>
<linearGradient id="paint1_linear_266_5409" x1="152" y1="61" x2="152" y2="350" gradientUnits="userSpaceOnUse">
<stop stop-color="#FF5C52"/>
<stop offset="1" stop-color="#CB0000"/>
</linearGradient>
<linearGradient id="paint2_linear_266_5409" x1="152" y1="61" x2="152" y2="350" gradientUnits="userSpaceOnUse">
<stop stop-color="#FF5C52"/>
<stop offset="1" stop-color="#CB0000"/>
</linearGradient>
<linearGradient id="paint3_linear_266_5409" x1="152" y1="61" x2="152" y2="350" gradientUnits="userSpaceOnUse">
<stop stop-color="#FF5C52"/>
<stop offset="1" stop-color="#CB0000"/>
</linearGradient>
<linearGradient id="paint4_linear_266_5409" x1="152" y1="61" x2="152" y2="350" gradientUnits="userSpaceOnUse">
<stop stop-color="#FF5C52"/>
<stop offset="1" stop-color="#CB0000"/>
</linearGradient>
<linearGradient id="paint5_linear_266_5409" x1="152" y1="61" x2="152" y2="350" gradientUnits="userSpaceOnUse">
<stop stop-color="#FF5C52"/>
<stop offset="1" stop-color="#CB0000"/>
</linearGradient>
<linearGradient id="paint6_linear_266_5409" x1="152" y1="61" x2="152" y2="350" gradientUnits="userSpaceOnUse">
<stop stop-color="#FF5C52"/>
<stop offset="1" stop-color="#CB0000"/>
</linearGradient>
<linearGradient id="paint7_linear_266_5409" x1="152" y1="61" x2="152" y2="350" gradientUnits="userSpaceOnUse">
<stop stop-color="#FF5C52"/>
<stop offset="1" stop-color="#CB0000"/>
</linearGradient>
<linearGradient id="paint8_linear_266_5409" x1="152" y1="61" x2="152" y2="350" gradientUnits="userSpaceOnUse">
<stop stop-color="#FF5C52"/>
<stop offset="1" stop-color="#CB0000"/>
</linearGradient>
<linearGradient id="paint9_linear_266_5409" x1="152" y1="61" x2="152" y2="350" gradientUnits="userSpaceOnUse">
<stop stop-color="#FF5C52"/>
<stop offset="1" stop-color="#CB0000"/>
</linearGradient>
<linearGradient id="paint10_linear_266_5409" x1="152" y1="61" x2="152" y2="350" gradientUnits="userSpaceOnUse">
<stop stop-color="#FF5C52"/>
<stop offset="1" stop-color="#CB0000"/>
</linearGradient>
<linearGradient id="paint11_linear_266_5409" x1="152" y1="61" x2="152" y2="350" gradientUnits="userSpaceOnUse">
<stop stop-color="#FF5C52"/>
<stop offset="1" stop-color="#CB0000"/>
</linearGradient>
<linearGradient id="paint12_linear_266_5409" x1="152" y1="61" x2="152" y2="350" gradientUnits="userSpaceOnUse">
<stop stop-color="#FF5C52"/>
<stop offset="1" stop-color="#CB0000"/>
</linearGradient>
<linearGradient id="paint13_linear_266_5409" x1="152" y1="61" x2="152" y2="350" gradientUnits="userSpaceOnUse">
<stop stop-color="#FF5C52"/>
<stop offset="1" stop-color="#CB0000"/>
</linearGradient>
</defs>
</svg>
