<svg width="300" height="350" viewBox="0 0 300 350" fill="none" xmlns="http://www.w3.org/2000/svg">
<path d="M63.0002 131C63.0002 107.718 74.6471 86.1887 92.3022 70.8937C90.7698 70.1983 89.3987 69.086 88.3741 67.5924C85.4062 63.2658 86.4701 57.3781 90.7505 54.4418C95.0892 51.4656 101.664 52.3568 108.446 53.2762C112.353 53.8058 116.328 54.3447 119.985 54.1594C130.117 50.1992 140.972 48 152 48V0V48.4844C172.058 48.7258 192.488 55.7343 207.966 67.8232C211.018 68.7223 214.562 68.9199 218.039 69.1137C223.5 69.4182 228.794 69.7134 231.749 72.7053C234.664 75.657 234.608 80.4383 231.624 83.3845C229.887 85.1004 227.539 85.8155 225.306 85.5304C235.089 98.7172 241 114.414 241 131L241 130C241 132.576 243.129 134.835 245.19 137.023C247.125 139.076 249 141.066 249 143.196C249 145.297 247.209 147 245 147C242.791 147 241 145.297 241 143.196V174C241 178.697 244.725 182.816 248.333 186.806C251.718 190.55 255 194.179 255 198.063C255 201.894 251.866 205 248 205C246.017 205 244.226 204.183 242.953 202.869C246.293 211.505 253.419 219.489 260.379 227.286C269.327 237.312 278 247.029 278 257.427C278 267.684 269.718 276 259.5 276C249.283 276 241 267.684 241 257.427V288C241 296.787 247.919 304.495 254.618 311.959C260.906 318.965 267 325.755 267 333.021C267 340.189 261.18 346 254 346C246.821 346 241 340.189 241 333.021L241 350H300H151H0H63.0002V303.5C63.0002 312.337 55.8368 319.5 47.0002 319.5C38.1637 319.5 31.0002 312.337 31.0002 303.5C31.0002 294.543 38.5014 286.172 46.2402 277.536C51.34 271.845 56.543 266.039 59.7705 259.874C58.6822 260.587 57.3884 261 56.0002 261C52.1343 261 49.0002 257.794 49.0002 253.839C49.0002 249.83 52.282 246.084 55.6677 242.219C59.275 238.101 63.0002 233.848 63.0002 229V194.601C63.0002 199.792 58.747 204 53.5002 204C48.2535 204 44.0002 199.792 44.0002 194.601C44.0002 189.34 48.4541 184.423 53.049 179.35C57.9445 173.945 63.0002 168.363 63.0002 162V131Z" fill="white"/>
</svg>
