<svg width="300" height="350" viewBox="0 0 300 350" fill="none" xmlns="http://www.w3.org/2000/svg">
<path opacity="0.2" d="M74.5 274.5C74.5 274.5 71.0149 344.137 152 344.137C232.985 344.137 227.986 302 227.986 302V350H76.0139L74.5 274.5Z" fill="black"/>
<path opacity="0.7" d="M208 328.11C208 335.229 199.717 341 189.5 341C179.283 341 171 335.229 171 328.11C171 328.11 174.624 335.774 189.5 335.774C204.376 335.774 206 324.277 189.5 287C189.5 287 208 320.991 208 328.11Z" fill="black"/>
<path opacity="0.7" d="M178 209.845C178 222.633 170.613 233 161.5 233C152.387 233 145 222.633 145 209.845C145 209.845 148.232 223.613 161.5 223.613C174.768 223.613 176.216 202.961 161.5 136C161.5 136 178 197.057 178 209.845Z" fill="black"/>
<path opacity="0.7" d="M98 175.019C98 181.084 103.149 186 109.5 186C115.851 186 121 181.084 121 175.019C121 175.019 118.747 181.548 109.5 181.548C100.253 181.548 99.2432 171.755 109.5 140C109.5 140 98 168.955 98 175.019Z" fill="black"/>
<path opacity="0.7" d="M192 149.077C192 152.901 195.358 156 199.5 156C203.642 156 207 152.901 207 149.077C207 149.077 205.531 153.194 199.5 153.194C193.469 153.194 192.811 147.019 199.5 127C199.5 127 192 145.254 192 149.077Z" fill="black"/>
<path opacity="0.7" d="M97 300.794C97 304.221 99.9101 307 103.5 307C107.09 307 110 304.221 110 300.794C110 300.794 108.727 304.484 103.5 304.484C98.2733 304.484 97.7027 298.948 103.5 281C103.5 281 97 297.366 97 300.794Z" fill="black"/>
<path opacity="0.8" d="M71.0002 131C71.0002 105.363 83.9108 81.8419 102.5 67C102.5 67 87.5002 68 92.0002 56C95.5002 49.5 115 57.5 119.011 57C129.088 52.5011 140.252 50 152 50C171.561 50 189.002 56.9565 203 68.5C216.5 73.023 229 68.5 230.5 74.5C232 80.5 214.108 79 214.108 79C225.9 93.0697 233 111.206 233 131C233 131 225.5 67 152 67C78.5003 67 71.0002 131 71.0002 131Z" fill="white"/>
<ellipse cx="51.8584" cy="188.546" rx="2.5" ry="5" transform="rotate(33.7904 51.8584 188.546)" fill="white"/>
<ellipse cx="64.8584" cy="242.546" rx="2.5" ry="5" transform="rotate(33.7904 64.8584 242.546)" fill="white"/>
<ellipse cx="105.649" cy="166.46" rx="2.5" ry="5" transform="rotate(14.1864 105.649 166.46)" fill="white"/>
<ellipse cx="196.641" cy="143.455" rx="1.12405" ry="2.24811" transform="rotate(14.1864 196.641 143.455)" fill="white"/>
<ellipse cx="102.024" cy="292.971" rx="1.12405" ry="3.81142" transform="rotate(14.1864 102.024 292.971)" fill="white"/>
<ellipse cx="179.156" cy="311.628" rx="2.44195" ry="11.3763" transform="rotate(14.1864 179.156 311.628)" fill="white"/>
<ellipse cx="153.294" cy="189.966" rx="2.5" ry="11.7103" transform="rotate(14.1864 153.294 189.966)" fill="white"/>
<ellipse cx="49.8584" cy="286.546" rx="2.5" ry="5" transform="rotate(33.7904 49.8584 286.546)" fill="white"/>
<ellipse cx="42.774" cy="301.481" rx="4.94514" ry="8.57773" transform="rotate(13.2058 42.774 301.481)" fill="white"/>
<ellipse cx="247.205" cy="311.665" rx="2.37707" ry="11.4821" transform="rotate(138.997 247.205 311.665)" fill="white"/>
<ellipse cx="250.211" cy="229.862" rx="4.87287" ry="11.4821" transform="rotate(138.997 250.211 229.862)" fill="white"/>
<ellipse cx="263.4" cy="244.849" rx="2.47754" ry="4.17955" transform="rotate(145.748 263.4 244.849)" fill="white"/>
<ellipse cx="170.629" cy="76.5549" rx="27.5" ry="14" transform="rotate(19.9827 170.629 76.5549)" fill="white"/>
<ellipse cx="202.464" cy="103.507" rx="12.0352" ry="6.127" transform="rotate(31.4582 202.464 103.507)" fill="white"/>
<ellipse cx="203.822" cy="90.1207" rx="4.30972" ry="2.19404" transform="rotate(31.4582 203.822 90.1207)" fill="white"/>
<ellipse rx="71.5" ry="3.5" transform="matrix(-4.37114e-08 1 1 4.37114e-08 216.5 198.5)" fill="white"/>
<path opacity="0.7" fill-rule="evenodd" clip-rule="evenodd" d="M63.0002 194.601C63.0002 197.764 61.4211 200.562 59.0002 202.266C57.4481 203.358 55.55 204 53.5002 204C48.2535 204 44.0002 199.792 44.0002 194.601C44.0002 189.34 48.4541 184.423 53.049 179.35C57.9445 173.945 63.0002 168.363 63.0002 162V131C63.0002 109.13 73.2775 88.806 89.1582 73.7437C90.1833 72.7714 91.2317 71.8211 92.3022 70.8937C91.0762 70.3373 89.9535 69.5141 89.0288 68.4423C88.7977 68.1744 88.579 67.891 88.3741 67.5924C85.4062 63.2658 86.4701 57.3781 90.7505 54.4418C95.0892 51.4656 101.664 52.3568 108.446 53.2762C112.353 53.8058 116.328 54.3447 119.985 54.1594C130.117 50.1992 140.972 48 152 48C172.411 48 192.231 55.5336 207.966 67.8232C211.018 68.7224 214.562 68.9199 218.039 69.1137C223.5 69.4182 228.794 69.7134 231.749 72.7053C234.664 75.657 234.608 80.4383 231.624 83.3845C231.041 83.96 230.39 84.423 229.697 84.7733C228.325 85.4676 226.79 85.7199 225.306 85.5304C234.892 98.4519 240.761 113.783 240.993 130C240.998 130.333 241 130.666 241 131L241 130C241 130.339 241.037 130.672 241.106 131C241.559 133.168 243.4 135.122 245.19 137.023C247.125 139.076 249 141.066 249 143.196C249 145.297 247.209 147 245 147C242.791 147 241 145.297 241 143.196V174C241 178.697 244.725 182.816 248.333 186.806C251.718 190.55 255 194.179 255 198.063C255 201.791 252.032 204.833 248.31 204.993C248.207 204.998 248.104 205 248 205C246.017 205 244.226 204.183 242.953 202.869C243.729 204.876 244.709 206.847 245.845 208.79C249.596 215.205 255.036 221.301 260.379 227.286C269.327 237.312 278 247.029 278 257.427C278 267.684 269.718 276 259.5 276C253.625 276 248.389 273.25 245 268.962C242.496 265.794 241 261.786 241 257.427V288C241 296.787 247.919 304.495 254.618 311.959C260.906 318.965 267 325.755 267 333.021C267 340.189 261.18 346 254 346C250.507 346 247.336 344.625 245 342.387C242.535 340.025 241 336.702 241 333.021L241 350H227L228.5 301.5C234.515 308.061 239.077 316.084 243.025 323.026C249.907 335.128 254.92 343.943 262.5 336C268.939 329.253 258.813 318.746 248.129 307.659C239.018 298.204 229.5 286 229.5 273L231 232C237.197 236.266 251.5 280 270.5 264.982C289.5 249.963 231.5 210 231.5 184C231.5 184 232.356 155.666 233 131.5C233 111.878 226.5 95 214 79C216.239 79.2858 231.252 80 230.5 74.5C230.082 71.4423 225.957 71.2297 219.969 70.9213C215.187 70.6749 209.217 70.3674 203 68.5C187.5 55.8863 171.694 50 152 50C141.301 50 128.5 52.5 119.5 57C116.647 57.1445 112.859 56.2737 108.985 55.383C102.121 53.8049 94.9857 52.1646 92.3022 56C88.1042 62 94.5002 68 102.5 67C82.0002 84 71.0002 106.008 71.0002 131L72.0002 155C72.0002 162.933 63.7491 171.582 56.6311 179.043C49.8415 186.161 44.0829 192.197 47.5002 195.5C53.8551 201.642 59.3859 191.687 68.9559 174.461C69.9274 172.713 70.9404 170.889 72.0002 169L73.5002 218C73.5002 228 68.842 234.692 63.9804 238.67C56.6058 244.703 48.7629 251.12 56.0002 257C64.0002 263.5 73.5002 245 73.5002 245C70.2411 262.273 60.8883 270.715 51.972 278.762C47.2094 283.061 42.5713 287.247 39.053 292.606C28.948 308 45.1638 323 54.582 306C64.0002 289 74.5002 273 74.5002 273L75.5002 350H63.0002V303.5C63.0002 307.558 61.4897 311.263 59.0002 314.083C56.0685 317.405 51.779 319.5 47.0002 319.5C38.1637 319.5 31.0002 312.337 31.0002 303.5C31.0002 294.543 38.5014 286.172 46.2402 277.536C49.9097 273.441 53.6325 269.287 56.6345 264.982C57.8046 263.304 58.8652 261.603 59.7705 259.874C58.6822 260.587 57.3884 261 56.0002 261C55.5144 261 55.04 260.949 54.582 260.853C51.396 260.182 49.0002 257.297 49.0002 253.839C49.0002 249.83 52.282 246.084 55.6677 242.219C59.275 238.101 63.0002 233.848 63.0002 229V194.601Z" fill="black"/>
</svg>
