<svg width="300" height="350" viewBox="0 0 300 350" fill="none" xmlns="http://www.w3.org/2000/svg">
<g clip-path="url(#clip0_266_5409)">
<g opacity="0.2">
<path d="M74.9998 297.5L46.9998 285L83.3703 295C93.0193 317.027 112.544 338.5 152 338.5L152 350H75.9997L74.9998 297.5Z" fill="black"/>
<path d="M152 350L152 338.5C191.455 338.5 210.98 317.027 220.629 295L257 285L229 297.5L228 350L152 350Z" fill="black"/>
</g>
<path opacity="0.8" d="M71.4998 129.5C71.4998 129.5 78.4998 67 152 67C225.5 67 232.5 129.5 232.5 129.5C233 117.5 229.5 101 221 89L237 59L203.5 68.5C193.5 59.5 182.5 55 166 51.5L152 20.5L138 51.5C121.5 55 110.5 59.5 100.5 68.5L66.9998 59L82.9998 89C74.4998 101 70.9998 117.5 71.4998 129.5Z" fill="white"/>
<path opacity="0.7" d="M178 215C178 230 166.13 241 152 241C137.87 241 126 229.5 126 215C126 215 127.857 233 152 233C176.143 233 178 215 178 215Z" fill="black"/>
<path opacity="0.8" d="M168.61 194.997C164.875 191.896 160.348 189.903 155.539 189.242C150.731 188.581 145.833 189.28 141.401 191.258L152 215L168.61 194.997Z" fill="white"/>
<path opacity="0.8" d="M138.159 192.99C134.814 195.094 131.993 197.932 129.909 201.289L152 215L138.159 192.99Z" fill="white"/>
<path opacity="0.7" d="M178 143.127C178 158.127 166.13 169.127 152 169.127C137.87 169.127 126 157.627 126 143.127C126 143.127 127.857 161.127 152 161.127C176.143 161.127 178 143.127 178 143.127Z" fill="black"/>
<path opacity="0.8" d="M169.98 124.347C165.478 120.036 159.577 117.487 153.353 117.163C147.128 116.839 140.994 118.761 136.069 122.58L152 143.128L169.98 124.347Z" fill="white"/>
<path opacity="0.8" d="M131.283 127.417C130.18 128.872 129.233 130.439 128.458 132.092L152 143.127L131.283 127.417Z" fill="white"/>
<path opacity="0.7" d="M178 287.127C178 302.127 166.13 313.127 152 313.127C137.87 313.127 126 301.627 126 287.127C126 287.127 127.857 305.127 152 305.127C176.143 305.127 178 287.127 178 287.127Z" fill="black"/>
<path opacity="0.8" d="M167.44 266.209C162.591 262.629 156.649 260.846 150.63 261.164C144.611 261.481 138.89 263.88 134.444 267.95L152 287.128L167.44 266.209Z" fill="white"/>
<path opacity="0.8" d="M132.62 269.794C128.821 274.042 126.523 279.421 126.079 285.103L152 287.128L132.62 269.794Z" fill="white"/>
<path opacity="0.8" d="M71.3493 131.337C73.6808 135.812 74.8799 140.779 74.8405 145.8L44.2308 145.207L71.3493 131.337Z" fill="white"/>
<path opacity="0.8" d="M233.003 131.337C230.701 135.812 229.518 140.779 229.557 145.8L259.769 145.207L233.003 131.337Z" fill="white"/>
<path opacity="0.8" d="M72.3145 207.075C73.7694 209.88 74.7556 212.902 75.2337 216.02L46.7306 220.219L72.3145 207.075Z" fill="white"/>
<path opacity="0.8" d="M232.05 207.075C230.614 209.88 229.641 212.902 229.169 216.02L257.301 220.219L232.05 207.075Z" fill="white"/>
<path opacity="0.8" d="M74.0704 272.564C74.9775 274.313 75.6814 276.159 76.1681 278.065L51.2812 284.272L74.0704 272.564Z" fill="white"/>
<path opacity="0.8" d="M230.317 272.563C229.421 274.312 228.727 276.158 228.246 278.065L252.81 284.271L230.317 272.563Z" fill="white"/>
<path opacity="0.7" d="M132.947 50.1671C120.807 52.9305 109.311 58.2245 99.2787 65.398L64.8456 57.0919L73.5728 93.2707C67.3837 103.838 63.5934 115.646 63.064 128.01L32 147L63 165.951V202.049L32 221L63 239.951V266.049L32 285L63 303.951V331.049L32 350H76.5L75 297.222L47 285L75 269L73.5 233.222L43.5 221L72.5 204.5L71.5 159.222L40.5 146L71.5 129.5C71.5 129.5 70 108 83 89L67 59L100.5 68.5C112 58.2444 123.758 54.6429 138.028 51.3948L152 20.5L165.972 51.3948C180.242 54.6429 192 58.2444 203.5 68.5L237 59L221 89C234 108 232.5 129.5 232.5 129.5L263.5 146L232.5 159.222L231.5 204.5L260.5 221L230.5 233.222L229 269L257 285L229 297.222L227.5 350H272L241 331.049V303.951L272 285L241 266.049V239.951L272 221L241 202.049V165.951L272 147L240.936 128.01C240.407 115.646 236.616 103.838 230.427 93.2707L239.154 57.0919L204.721 65.398C194.689 58.2245 183.193 52.9305 171.053 50.1671L152 19L132.947 50.1671Z" fill="black"/>
</g>
<defs>
<clipPath id="clip0_266_5409">
<rect width="300" height="351" fill="white"/>
</clipPath>
</defs>
</svg>
