<svg width="300" height="350" viewBox="0 0 300 350" fill="none" xmlns="http://www.w3.org/2000/svg">
<path d="M132.947 50.167C120.807 52.9304 109.311 58.2244 99.2786 65.398L64.8456 57.0919L73.5728 93.2706C67.3837 103.838 63.5934 115.646 63.064 128.01L32 147L63 165.951V202.049L32 221L63 239.951V266.049L32 285L63 303.951V331.049L32 350H0H300H272L241 331.049V303.951L272 285L241 266.049V239.951L272 221L241 202.049V165.951L272 147L240.936 128.01C240.407 115.646 236.616 103.838 230.427 93.2707L239.154 57.0919L204.721 65.398C194.689 58.2245 183.193 52.9305 171.053 50.1671L152 20V0V19L132.947 50.167Z" fill="white"/>
</svg>
