<svg width="300" height="350" viewBox="0 0 300 350" fill="none" xmlns="http://www.w3.org/2000/svg">
<path d="M67 91.5C64.694 90.6232 61.9895 89.0022 60.3076 86.3883C53.9853 76.5626 67.5 64.5192 74.0523 61.2278C83.1479 56.6589 93.3606 54.2883 103.534 51.9289C117 48.5 123.5 47.5 138.408 40.1218C142.834 37.9313 148.158 34.8102 152.5 32L152.429 0L152.5 32.5C165.909 37.0833 175.5 42.5 180 49.5C181 49 182.325 48.6975 183.205 48.5544C188.333 47.7209 194.991 49.0833 200.365 54.1246C202.322 55.9607 203.797 58.1108 204.858 60.4796C216.67 64.7947 224.942 70.7881 229.347 78.4747C230.758 80.9385 231.504 83.4267 231.757 85.9796C241.355 92.0615 247.355 99.1087 250.02 107.003C252.814 115.279 251.781 124.007 248.172 132.732C261.6 139.563 258.391 161.903 256.459 173.493C255.962 176.476 254.661 179.538 252.785 182.626C254.92 183.404 257.469 184.75 259.636 187.083C269.731 197.955 262.535 217.837 253.796 227.721C263.036 231.444 264.867 243.224 264.999 251.954C265.08 257.269 261.543 262.597 256.634 267.59C254.255 270.01 251.416 272.488 248.205 275.004C253.604 275.959 258.626 279.012 261.719 283.751C269.173 295.172 261.037 305.094 251.036 310.208C255.328 311.595 259.18 314.353 261.725 318.253C270.192 331.227 254.751 350 240.5 350L300 350.001L0 350.003L38.0382 349.967C36.8426 349.782 35.8556 348.886 35.5767 347.677C35.2625 346.316 35.9294 344.918 37.1849 344.306L37.187 344.305C43.0648 341.433 48.9272 338.53 54.7834 335.614L55.7121 334.818C51.3869 333.439 47.5029 330.671 44.9418 326.747C38.4882 316.858 44.3599 305.767 54.1172 301.177C50.4393 299.671 47.1837 297.121 44.9418 293.686C37.4571 282.217 45.6419 272.27 55.7338 267.263C51.3999 265.887 47.5072 263.115 44.9418 259.185C37.6282 247.978 45.8483 237.687 56.0029 232.621C51.6967 231.785 47.8476 229.135 44.9418 224.683C39.2985 216.036 42.2156 205.078 51.4112 200.381C52.5298 199.81 53.6964 199.318 54.8598 198.827C55.422 198.589 55.9834 198.352 56.5383 198.107C51.9686 197.552 47.8578 195.215 44.9418 190.747C37.4775 179.31 45.7607 169.139 56.0096 164.315C51.6024 163.866 47.6307 161.867 44.9419 157.747C39.8136 149.889 41.748 140.098 49.0919 134.853C50.9723 133.22 54.0892 132.414 56 131.5C52.085 130.66 47.6176 127.847 44.9419 123.747C42.7544 120.395 41.8522 116.692 42.1061 113.141C42.0471 111.469 42.4539 109.848 43.2148 108.291C44.5623 104.901 47.0673 101.919 50.5896 99.8916C51.2631 99.504 51.9445 99.1278 52.6321 98.7607C57.8034 96 63.0018 93.1913 67 91.5Z" fill="white"/>
</svg>
