<svg width="300" height="350" viewBox="0 0 300 350" fill="none" xmlns="http://www.w3.org/2000/svg">
<path opacity="0.7" fill-rule="evenodd" clip-rule="evenodd" d="M60.3076 86.3883C62.1537 89.2573 65.5 91 67 91.5C61 94 57 96.5 50.5896 99.8917C42.0316 104.817 39.4792 115.377 44.9419 123.747C47.8495 128.202 53 131 56 131.5C54.138 132.4 52.22 132.931 50.4344 133.982C41.9981 138.947 39.5139 149.43 44.9419 157.747C47.6307 161.867 51.6024 163.866 56.0096 164.315C45.7607 169.139 37.4775 179.31 44.9418 190.747C47.8578 195.215 51.9686 197.552 56.5383 198.107C54.8352 198.86 53.0705 199.534 51.4112 200.381C42.2156 205.078 39.2985 216.036 44.9418 224.683C47.8476 229.135 51.6967 231.785 56.0029 232.621C45.8483 237.687 37.6282 247.978 44.9418 259.185C47.5072 263.115 51.3999 265.887 55.7338 267.263C45.6419 272.27 37.4571 282.217 44.9418 293.686C47.1837 297.121 50.4393 299.671 54.1172 301.177C44.3599 305.767 38.4882 316.858 44.9418 326.747C47.5844 330.796 51.6353 333.615 56.126 334.945C49.8232 338.086 43.5141 341.214 37.187 344.305L37.1849 344.306C35.9294 344.918 35.2625 346.316 35.5767 347.677C35.8908 349.039 37.1029 350.003 38.4998 350.003L51.7634 349.998C57.0012 347.403 63.1348 340.984 71.0596 337C77.3376 333.844 91.5839 332.946 98.0133 329.673C106.309 325.451 111.284 316.859 119.534 312.58C146.312 298.692 176.146 282.759 201.159 268.25C203.13 267.107 207.054 264.209 211.921 260.613C225.88 250.303 247.602 234.258 253.308 237.418C255.918 238.864 257.307 241.273 257.5 254C257.541 256.728 254.11 261.18 249.372 266C243.695 271.774 235.581 279.233 227.198 280.333C218.494 281.474 209.118 279.481 201.065 283.865C188.775 290.555 181.998 304.186 169.512 310.565C147.619 321.747 117.394 338.823 95.5 350.003L121.5 350.001L184.996 316.164C198.471 314.727 212.863 311.837 224.735 305.11C232.541 300.686 239.491 294.741 244.451 289.959C253.118 280.173 263.266 297.275 252.519 302.71C234.138 312.03 210.683 324.055 189.936 334.692L189.917 334.702C183.539 337.972 169.64 347.112 164 350L207.5 349.998C207.5 349.998 252.483 317 256.7 321.532C263.625 332.143 244.505 345.791 236 350.003L240.5 350C254.751 350 270.192 331.227 261.725 318.253C259.18 314.353 255.328 311.595 251.036 310.208C261.037 305.094 269.173 295.172 261.719 283.752C258.626 279.012 253.604 275.959 248.205 275.004C251.416 272.488 254.255 270.01 256.634 267.591C261.543 262.597 265.08 257.269 264.999 251.954C264.867 243.224 263.036 231.444 253.796 227.721C262.535 217.837 269.731 197.955 259.636 187.083C257.469 184.75 254.92 183.404 252.785 182.626C254.661 179.538 255.962 176.476 256.459 173.493C258.391 161.903 261.6 139.563 248.172 132.732C251.781 124.007 252.814 115.279 250.02 107.004C247.355 99.1088 241.355 92.0616 231.757 85.9797C231.504 83.4267 230.758 80.9386 229.347 78.4747C224.942 70.7882 216.67 64.7948 204.858 60.4797C203.797 58.1108 202.322 55.9608 200.365 54.1246C193.753 47.9213 185.195 47.2884 179.938 49.4626C175.681 42.6609 167.668 36.8431 154.011 32.1751C153.5 31.9918 152.952 31.9532 152.429 32.0547C152.056 32.1268 151.696 32.2699 151.369 32.482C142.48 38.2352 134.019 42.8836 123.915 46.4272C107.802 52.0781 89.3476 53.5447 74.0523 61.2279C66.5296 65.0067 54.2355 76.9516 60.3076 86.3883ZM151.284 36.25C149.501 37.1 146.579 38.6479 143.323 40.373C137.351 43.5365 130.255 47.2954 127 48.4372C120.935 50.5641 114.507 52.368 108.025 54.1871C96.8091 57.3347 85.4322 60.5274 75.5 65.5165C56.7924 73.047 58.5616 90.9246 72.1391 89.1803C73.9468 88.2496 75.8066 87.2978 77.7082 86.3247L77.7095 86.324C102.524 73.6253 134.478 57.2729 151.284 36.25ZM232 89.9998C238.475 94.8459 243.214 101.713 245 107.004C247.226 113.597 245.841 122.79 242.523 130.692C240.713 135.001 238.162 139.425 234.982 143.923C222.136 161.335 204.596 175.038 187.571 188.106C178.207 193.507 168.125 197.407 158.045 201.306C147.397 205.424 136.751 209.542 126.955 215.428C106.007 228.014 86.0388 243.02 68.6488 260.25C63.5207 265.331 53.32 261.044 49.9664 255.905C43.8517 246.536 51.1129 240.462 58.5705 235.951C65.179 231.953 72.1126 228.486 79.0449 225.02C84.2432 222.421 89.4407 219.822 94.5 217C116.671 204.634 137.547 190.689 158.463 176.718C169.401 169.412 180.349 162.099 191.5 155C192.055 154.646 192.612 154.293 193.17 153.939C200.761 149.121 208.492 144.216 214.558 137.523C221.549 129.81 224.548 119.934 226.963 111.98C227.39 110.576 227.847 109.17 228.304 107.762C230.185 101.975 232.086 96.1248 232 89.9998ZM58.6273 272.525C61.5544 271.071 65.7952 268.94 71.0596 266.224C80.4823 261.363 90.4104 257.771 100.344 254.177C112.544 249.763 124.752 245.346 136.043 238.572C148.44 231.136 159.028 221.377 169.617 211.616C176.55 205.226 183.483 198.835 190.926 193.095C212.833 180.341 235.047 159.328 246.361 136.694C254.247 146.418 252.401 158.252 250.443 170C247.447 187.98 226.837 200.469 212.334 208.613C210.246 209.785 208.09 210.973 205.88 212.19C199.233 215.851 192.101 219.778 184.891 224.36C176.708 229.559 163.524 239.099 155.294 245.058C145.447 252.153 135.808 258.892 126.561 263.948C107.371 274.439 87.9362 284.449 68.3476 294.171C62.3001 297.179 55.5359 295.78 51.7634 290C46.4546 281.865 51.4903 276.07 58.6273 272.525ZM255.239 191.166C253.678 189.485 251.72 188.55 250.062 188.038C248.482 187.552 243.969 192.78 240.821 196.426C237.69 200.053 234.225 203.357 230.757 206.663C230.326 207.075 229.894 207.486 229.463 207.898C226.448 210.782 223.461 213.699 220.721 216.864C213.149 225.572 205.435 234.282 195.61 240.531C186.564 246.284 175.539 250.188 165.086 253.888C164.964 253.931 164.843 253.974 164.721 254.017C164.366 254.143 164.011 254.268 163.656 254.394C155.42 257.306 147.118 260.242 139.444 264.455C112.004 279.519 84.2445 293.672 55.88 306.978C48.8718 310.266 48.9421 316.282 53 322.5C56.7013 328.171 59.3429 329.73 65.5 327C70.5558 320.072 78.3274 314.173 85.9391 310.504C90.4218 308.344 95.3022 307.515 100.191 306.685C105.227 305.83 110.271 304.973 114.899 302.658C140.948 289.624 173.355 272.683 200.417 256.312C213.954 248.123 226.091 240.113 235.408 232.836C240.066 229.197 243.974 225.777 246.984 222.642C250.023 219.477 252.008 216.746 252.995 214.5C260.044 198.457 258.101 194.248 255.239 191.166ZM170.981 163.288C145.692 182.37 116.313 200.025 92.9736 213.043C84.8264 217.588 76.6281 222.046 68.3197 226.289C62.0775 229.478 53.7972 227.273 49.9664 221.404C46.2887 215.768 45.6042 206.899 51.5581 203.803L51.5952 203.787C52.9323 203.211 63.8431 198.476 79.3097 190.747C95.7971 182.509 117.5 170.85 138.287 157.194C165.856 139.08 216.792 104.253 206.113 64.0479C213.657 68.027 222.245 74.96 224.846 79.4998C229.348 87.3551 227.193 96.4168 224.449 104.412C222.099 109.027 217.069 112.002 212.052 114.969C208.199 117.247 204.354 119.521 201.736 122.531C197.034 127.937 193.181 133.93 189.332 139.915C183.967 148.26 178.612 156.588 170.981 163.288ZM210.777 134.485C216.357 128.329 219.18 120.936 221.463 113.812C219.418 115.397 217.13 116.637 214.846 117.874C211.455 119.711 208.071 121.543 205.5 124.5C201.213 129.429 197.782 135.066 194.356 140.696C191.964 144.625 189.575 148.552 186.897 152.232C188.069 151.484 189.251 150.74 190.437 149.995C197.671 145.448 205.036 140.818 210.777 134.485ZM137.491 154.144C128.165 160.272 118.64 165.998 109.488 171.19C95.8282 178.725 81.978 186.243 67.7313 192.636C61.5564 195.407 53.6713 193.145 49.9664 187.468C46.4273 182.045 47.1065 173.747 52.4683 170.5C61.7728 164.865 71.6401 160.055 81.5188 155.239C90.6983 150.764 99.8878 146.284 108.645 141.133C113.417 138.327 118.733 136.775 124.047 135.225C130.142 133.446 136.233 131.669 141.498 128C147.031 124.144 150.675 118.608 154.323 113.065C156.563 109.662 158.804 106.257 161.485 103.237C176.394 92.7445 190.31 70.8776 181.971 52.4998C182.396 52.4604 182.881 52.4016 183.412 52.3372C186.901 51.9142 192.368 51.2515 195.61 54.2933C229.252 88.4767 164.912 136.128 137.491 154.144ZM71.2261 92.2904C64.4533 95.5561 57.779 98.8859 51.5 102.5C45.9404 105.7 43.9129 116.003 47.5 121.5C50.8944 126.701 59.7908 128.193 66.0631 126.26C80.0324 119.129 101.729 107.321 120.579 93.911C134.742 83.8352 146.957 73.0894 153.222 62.9701C158.147 55.0156 159.618 45.9126 152.614 38.7507C151.488 40.41 150.133 42.0654 148.623 43.7028C145.437 47.1547 141.372 50.7207 136.773 54.2933C120.881 66.6376 92.9736 81.8042 71.2261 92.2904ZM51.6543 137.238C46.1816 140.459 45.4338 150.035 49 155.5C51.8451 159.859 57.7008 161.612 63.0724 160.928C73.3727 155.904 89.4257 147.723 106.445 137.715C110.084 134.559 113.282 130.958 116.479 127.358C120.734 122.566 124.986 117.778 130.27 114.049C134.47 111.085 139.383 109.227 144.288 107.372C150.498 105.023 156.694 102.68 161.412 98.1052C170.239 89.5451 181.623 77.5606 181.44 64.2969C181.335 56.6664 176.214 42.6637 155.463 35.0291C156.031 36.8668 157.234 38.4627 158.438 40.0606C160.022 42.1617 161.608 44.2661 161.756 46.9278C162.925 67.9746 138.491 85.3347 123.337 96.1013C109.031 106.265 93.6145 114.556 78.1221 122.737C69.2264 127.434 60.3277 132.133 51.6543 137.238ZM239.752 283.752C235.065 288.182 223.763 298.825 217 302.658C209.091 307.14 191.512 306.711 182.645 308.429C189.62 302.001 195.494 293.729 203.934 289.135C210.589 285.512 232.46 284.367 239.752 283.752ZM72.5 329.673C94.2159 327.687 103.607 318.452 110.379 311.792C110.935 311.245 111.474 310.715 112 310.208C103.648 311.664 83.6807 316.164 72.5 329.673ZM192.39 235.468C200.593 230.251 207.296 223.14 213.645 215.862C212.019 216.767 210.391 217.667 208.762 218.566L208.757 218.569L208.752 218.572C201.789 222.418 194.824 226.265 188.109 230.532C180.092 235.626 170.527 242.55 162.293 248.511C173.108 244.685 183.909 240.863 192.39 235.468ZM130.045 220.571C110.033 232.595 93.8589 245.587 83.6807 254.51C85.5229 253.838 87.3677 253.172 89.2126 252.506L89.2143 252.505L89.2173 252.504L89.2202 252.503L89.2232 252.502C104.214 247.088 119.218 241.669 132.957 233.427C144.792 226.328 159.993 212.335 170.116 203.005C159.891 206.952 139.46 214.914 130.045 220.571ZM153.403 107.615C150.905 108.695 148.229 109.49 145.548 110.287C141.133 111.6 136.703 112.917 133.027 115.512C127.908 119.124 123.748 123.831 119.603 128.522C117.958 130.382 116.316 132.24 114.617 134.027C117.072 133.143 119.615 132.392 122.168 131.638C128.154 129.87 134.195 128.086 139.285 124.538C144.388 120.982 147.855 115.828 151.284 110.73C151.987 109.685 152.689 108.642 153.403 107.615Z" fill="black"/>
<g opacity="0.2">
<path d="M236.005 350C244.513 345.786 263.624 332.141 256.7 321.532C263.625 332.143 222 348.5 211.921 350.003L236.005 350Z" fill="black"/>
<path d="M164.002 349.999C166.739 348.597 171.42 345.724 176.243 342.764C181.359 339.624 186.634 336.385 189.917 334.702L189.936 334.692C210.683 324.055 234.138 312.03 252.519 302.71C243.691 307.186 231.747 311.435 219.418 315.82C206.076 320.566 192.283 325.472 181.5 331C178.21 332.687 166.125 336.92 154.42 341.02C143.431 344.869 132.776 348.602 130.045 350L164.002 349.999Z" fill="black"/>
<path d="M95.5016 350.002C106.464 344.404 119.515 337.328 132.562 330.254C145.573 323.2 158.581 316.148 169.512 310.565C175.879 307.312 180.762 302.173 185.648 297.031C190.344 292.089 195.043 287.143 201.065 283.865C195.398 286.95 186.435 292.702 177.196 298.63C166.4 305.558 155.228 312.727 148.5 316.164C126.608 327.346 90.5 341 61.5 350.003L95.5016 350.002Z" fill="black"/>
<path d="M58.5705 235.95C51.1129 240.462 43.8517 246.536 49.9664 255.905C53.32 261.044 63.5207 265.331 68.6487 260.25C78.1047 250.881 88.3231 242.17 99.0467 234.147C80.6641 246.579 61.4426 258.357 55.7338 252.502C46.7786 243.317 58.5705 235.95 58.5705 235.95Z" fill="black"/>
<path d="M68.7025 267.436C64.5208 269.58 61.1038 271.295 58.6273 272.525C51.4903 276.069 46.4546 281.865 51.7634 290C55.5359 295.78 62.3001 297.179 68.3475 294.171C87.9362 284.448 107.371 274.439 126.561 263.948C135.808 258.892 145.447 252.153 155.294 245.058C145.285 252.27 72.5596 290.059 64 281.5C57.6072 275.107 64.7013 269.742 68.7025 267.436Z" fill="black"/>
<path d="M200.417 256.312C187.442 264.161 103.526 313.418 94.5 302.71C86.4707 293.185 101.639 284.966 128.794 270.252C129.601 269.815 130.42 269.371 131.249 268.922C106.478 282.325 81.4241 294.995 55.88 306.978C48.8718 310.266 48.9421 316.282 53 322.5C56.7013 328.171 59.3429 329.73 65.5 327C70.5558 320.072 78.3274 314.173 85.9391 310.504C90.4218 308.343 95.3022 307.515 100.191 306.685C105.227 305.83 110.271 304.973 114.899 302.658C140.948 289.624 173.355 272.683 200.417 256.312Z" fill="black"/>
<path d="M221.463 113.812C219.18 120.936 214.332 126.576 208.752 132.732C208.111 133.439 207.475 134.146 206.842 134.852C201.796 140.467 196.864 145.955 190.437 149.995C197.671 145.448 205.036 140.818 210.777 134.485C216.357 128.329 219.18 120.936 221.463 113.812Z" fill="black"/>
<path d="M223.983 291.152C230.365 288.799 237.001 286.352 239.752 283.751C235.065 288.182 223.763 298.825 217 302.658C211.74 305.638 202.203 306.447 193.796 307.16C189.562 307.519 185.615 307.853 182.645 308.429C191.512 306.71 204.424 300.482 212.334 296C215.127 294.417 219.492 292.807 223.983 291.152Z" fill="black"/>
<path d="M72.5 329.673C91.5 321.532 102 316.164 110.379 311.792C103.607 318.451 94.2159 327.687 72.5 329.673Z" fill="black"/>
<path d="M194.688 230.612C193.637 231.271 192.574 231.938 191.5 232.621C190.692 233.135 189.872 233.66 189.038 234.193C181.123 239.26 172.078 245.049 162.293 248.511C173.108 244.685 183.909 240.863 192.39 235.468C200.593 230.251 207.296 223.14 213.644 215.862C208.127 222.187 201.669 226.236 194.688 230.612Z" fill="black"/>
<path d="M170.116 203.005C159.993 212.335 144.792 226.328 132.957 233.427C119.232 241.66 104.245 247.076 89.2698 252.485C101.514 248.056 112.462 241.339 123.552 234.535C126.022 233.02 128.5 231.5 131 230C142.835 222.9 159.993 212.335 170.116 203.005Z" fill="black"/>
<path d="M151.284 110.73C147.855 115.828 144.388 120.982 139.285 124.538C134.195 128.085 128.154 129.87 122.168 131.638C126.328 130.409 129.648 127.705 132.995 124.979C134.464 123.782 135.938 122.582 137.491 121.5C138.88 120.531 140.282 119.669 141.655 118.825C145.324 116.57 148.789 114.44 151.284 110.73Z" fill="black"/>
</g>
<path d="M218.14 288.033C218.342 288.758 214.946 290.338 210.555 291.561C206.164 292.784 202.441 293.188 202.239 292.463C202.037 291.738 205.433 290.159 209.824 288.936C214.215 287.712 217.938 287.309 218.14 288.033Z" fill="white"/>
<path d="M198.151 191.234C198.704 191.916 195.985 195.039 192.078 198.21C188.17 201.381 184.554 203.399 184.001 202.717C183.448 202.036 186.168 198.913 190.075 195.742C193.982 192.571 197.598 190.553 198.151 191.234Z" fill="white"/>
<path d="M151.787 46.4075C152.948 47.7551 146.993 56.5839 137.974 64.3507C128.955 72.1176 119.447 76.755 118.287 75.4073C117.126 74.0597 124.752 67.2373 133.771 59.4705C142.791 51.7037 150.627 45.0598 151.787 46.4075Z" fill="white"/>
<path d="M176.724 136.001C177.749 137.454 167.022 148.455 152.72 158.546C138.417 168.637 124.574 175.112 123.548 173.659C122.523 172.206 134.705 163.374 149.007 153.284C163.309 143.193 175.699 134.547 176.724 136.001Z" fill="white"/>
<path d="M186.5 81.5001C187.724 82.7906 186.726 93.0579 178.089 101.248C169.452 109.438 160.178 114.526 158.954 113.236C157.731 111.945 165.021 104.765 173.657 96.5748C182.294 88.3846 185.276 80.2097 186.5 81.5001Z" fill="white"/>
<path d="M213.51 75.1905C215.133 75.917 218.125 85.7893 213.263 96.6536C208.401 107.518 201.767 115.757 200.144 115.031C198.52 114.304 202.523 104.887 207.384 94.0229C212.246 83.1586 211.886 74.4641 213.51 75.1905Z" fill="white"/>
<path d="M224.936 133.387C225.93 134.861 223.254 144.824 213.387 151.479C203.519 158.135 193.533 161.625 192.538 160.151C191.544 158.676 199.917 152.795 209.785 146.14C219.653 139.484 223.941 131.912 224.936 133.387Z" fill="white"/>
<path d="M168.797 52.4126C170.803 54.2119 172.286 69.5766 164.339 78.4379C156.393 87.2992 150.006 88.2992 148 86.4999C145.993 84.7006 149.127 80.7835 157.073 71.9221C165.02 63.0608 166.79 50.6134 168.797 52.4126Z" fill="white"/>
<path d="M77.6519 68.6018C78.6998 70.0387 76.4703 73.449 72.672 76.2189C68.8738 78.9888 64.9452 80.0693 63.8973 78.6323C62.8494 77.1954 65.079 73.7851 68.8772 71.0152C72.6755 68.2453 76.604 67.1648 77.6519 68.6018Z" fill="white"/>
<path d="M49.4772 211.011C50.0068 211.737 50.9974 210.828 53.2621 209.176C55.5268 207.525 57.2978 207.375 56.7682 206.649C56.2387 205.923 53.6091 204.895 51.3444 206.547C49.0798 208.198 48.9477 210.285 49.4772 211.011Z" fill="white"/>
<path d="M59.6996 139.185C60.5797 140.392 59.0308 143.02 56.24 145.055C53.4493 147.09 50.4735 147.762 49.5934 146.555C48.7134 145.348 50.2623 142.72 53.053 140.685C55.8438 138.65 58.8196 137.978 59.6996 139.185Z" fill="white"/>
<path d="M62.0053 101.665C63.1906 103.29 61.1044 106.83 57.3456 109.571C53.5867 112.312 49.5787 113.217 48.3933 111.591C47.208 109.966 49.2942 106.426 53.053 103.685C56.8119 100.944 60.8199 100.039 62.0053 101.665Z" fill="white"/>
<path d="M59.719 170.244C60.4265 171.214 58.8871 173.541 56.2809 175.441C53.6746 177.342 50.9883 178.096 50.2809 177.126C49.5734 176.156 51.1127 173.829 53.719 171.928C56.3253 170.028 59.0116 169.273 59.719 170.244Z" fill="white"/>
<path d="M143.652 89.6017C144.7 91.0387 142.47 94.449 138.672 97.2189C134.874 99.9888 130.945 101.069 129.897 99.6323C128.849 98.1954 131.079 94.7851 134.877 92.0152C138.675 89.2453 142.604 88.1648 143.652 89.6017Z" fill="white"/>
<path d="M138.062 114.867C138.621 115.634 137.112 117.686 134.692 119.451C132.272 121.215 129.858 122.025 129.299 121.258C128.74 120.492 130.248 118.44 132.668 116.675C135.088 114.91 137.503 114.101 138.062 114.867Z" fill="white"/>
<path d="M142.079 216.475C142.593 217.272 135.987 222.444 127.325 228.027C118.662 233.61 111.223 237.489 110.709 236.692C110.195 235.894 116.801 230.722 125.464 225.139C134.126 219.557 141.565 215.677 142.079 216.475Z" fill="white"/>
<path d="M210.641 123.02C211.349 123.652 210.306 125.976 208.313 128.211C206.319 130.446 204.129 131.746 203.421 131.115C202.713 130.483 203.755 128.159 205.749 125.924C207.743 123.689 209.933 122.389 210.641 123.02Z" fill="white"/>
<path d="M110.334 110.788C111.224 112.327 101.487 119.624 88.5851 127.086C75.6833 134.548 64.5025 139.349 63.6121 137.809C62.7217 136.27 72.4589 128.973 85.3607 121.511C98.2625 114.049 109.443 109.248 110.334 110.788Z" fill="white"/>
<path d="M120.399 140.788C121.289 142.327 116.91 146.525 110.618 150.165C104.325 153.804 98.5025 155.506 97.6121 153.967C96.7218 152.427 101.101 148.229 107.393 144.59C113.686 140.95 119.509 139.248 120.399 140.788Z" fill="white"/>
<path d="M170.462 173.803C171.115 174.799 158.374 184.306 142.004 195.038C125.634 205.77 111.835 213.663 111.182 212.667C110.529 211.671 123.27 202.164 139.64 191.432C156.01 180.7 169.809 172.807 170.462 173.803Z" fill="white"/>
<path d="M112.322 78.1795C113.052 79.3832 108.494 83.4807 102.143 87.3317C95.7916 91.1826 90.0512 93.3287 89.3214 92.125C88.5916 90.9213 93.1488 86.8238 99.5002 82.9728C105.852 79.1219 111.592 76.9758 112.322 78.1795Z" fill="white"/>
<path d="M83.3289 94.6493C83.8417 95.5603 82.6009 97.2314 80.5574 98.3819C78.5138 99.5325 76.4415 99.7267 75.9286 98.8157C75.4157 97.9047 76.6566 96.2336 78.7001 95.0831C80.7436 93.9326 82.816 93.7384 83.3289 94.6493Z" fill="white"/>
<path d="M92.3289 154.649C92.8417 155.56 91.6009 157.231 89.5574 158.382C87.5138 159.532 85.4415 159.727 84.9286 158.816C84.4157 157.905 85.6566 156.234 87.7001 155.083C89.7436 153.933 91.816 153.738 92.3289 154.649Z" fill="white"/>
<path d="M118.329 174.649C118.842 175.56 117.601 177.231 115.557 178.382C113.514 179.532 111.441 179.727 110.929 178.816C110.416 177.905 111.657 176.234 113.7 175.083C115.744 173.933 117.816 173.738 118.329 174.649Z" fill="white"/>
<path d="M189.293 66.318C190.323 66.4936 190.839 68.5101 190.445 70.8219C190.051 73.1337 188.896 74.8655 187.866 74.6898C186.835 74.5142 186.319 72.4977 186.713 70.1859C187.107 67.8741 188.262 66.1424 189.293 66.318Z" fill="white"/>
<path d="M85.439 64.4728C85.8797 65.2863 85.1979 66.5085 83.9163 67.2028C82.6347 67.8971 81.2385 67.8005 80.7978 66.987C80.3572 66.1736 81.0389 64.9513 82.3205 64.2571C83.6022 63.5628 84.9983 63.6594 85.439 64.4728Z" fill="white"/>
</svg>
