<svg width="300" height="350" viewBox="0 0 300 350" fill="none" xmlns="http://www.w3.org/2000/svg">
<path fill-rule="evenodd" clip-rule="evenodd" d="M90.2647 72.1651C73.4177 87.37 62.4004 108.356 62.4004 131V215.238C61.9495 216.069 61.4821 216.896 61.0137 217.725C58.0423 222.983 55.0287 228.316 55.9005 235C56.6083 240.426 58.4294 244.183 60.103 247.635C60.9655 249.414 61.7888 251.112 62.4004 252.917V264.446C61.435 266.822 59.9285 268.784 58.5262 270.611C56.1682 273.683 54.1044 276.371 55.4005 280C56.394 282.782 59.2379 283.376 62.4004 282.983V308.332C61.8932 308.356 61.3924 308.411 60.9006 308.5C55.4005 309.5 55.4006 320 59.9006 320C60.6622 320 61.5119 320.075 62.4004 320.2V327.9L61.4005 328.5C61.4005 328.5 53.9005 333 55.9005 338.5C56.6929 340.679 59.212 341.288 62.4004 340.701V350H0H299.75H240.4V287.358C243.008 286.796 244.382 285.79 243.401 283.5C242.862 282.244 241.808 282.083 240.4 282.23V274.791C242.493 273.639 244.124 271.308 243.401 269.5C243.034 268.583 241.927 268.137 240.4 268.112V221.415C242.329 218.95 243.401 217.5 243.401 217.5C243.401 217.5 246.401 214 243.901 212C242.481 210.864 241.223 211.341 240.4 211.965V181.861C241.624 180.423 242.479 179.343 242.901 178.5C242.901 178.5 244.401 176.5 242.901 174.5C242.232 173.609 241.266 173.512 240.4 173.678V145.577C240.572 145.713 240.741 145.854 240.908 146C240.908 146 243.409 147 243.409 144C243.409 141 240.909 139 240.909 139C240.739 138.847 240.57 138.7 240.4 138.561V131C240.4 86.1887 197.757 48.818 150.5 48.5V0V48C142.175 48.1002 133.859 49.4547 125.987 51.8623C125.57 49.8565 124.326 48.0906 122.084 47.0718C116.584 44.5718 109.587 46.0717 102.084 55.5717C101.675 56.0903 101.23 56.6456 100.756 57.2366C97.8085 60.9139 93.7528 65.9736 90.2647 72.1651ZM62.4004 242.799V222.784C61.1334 225.737 60.2218 229.201 60.4009 233.5C60.576 237.702 61.3641 240.494 62.4004 242.799Z" fill="white"/>
</svg>
