<svg width="300" height="350" viewBox="0 0 300 350" fill="none" xmlns="http://www.w3.org/2000/svg">
<g opacity="0.7">
<path d="M82.5297 178.783C82.4922 178.749 82.4548 178.714 82.4175 178.679C80.5119 176.895 78.947 174.66 78.5177 171.961C76.9553 182.196 91.5817 187.072 91.5817 187.072C91.5817 187.072 85.2925 183.298 82.5297 178.783Z" fill="black"/>
<path d="M81.5845 170.072C81.1624 171.169 81.1678 172.295 81.4684 173.409C81.5027 173.296 81.5414 173.184 81.5845 173.072C82.7834 169.955 84.6723 170.517 87.2511 171.285C90.0497 172.119 93.6608 173.195 98.0845 170.072C104.821 165.316 105.591 158.048 105.371 152.499C105.358 152.781 105.342 153.065 105.32 153.351C104.967 158.113 103.345 163.359 98.0845 167.072C93.6608 170.195 90.0497 169.119 87.2511 168.285C84.6723 167.517 82.7834 166.955 81.5845 170.072Z" fill="black"/>
<path d="M105.357 149.177C106.244 151.115 109.162 157.235 112.082 160.572C113.56 162.261 115.305 162.791 116.828 163.254C118.623 163.799 120.109 164.25 120.488 166.393C120.49 166.379 120.491 166.364 120.493 166.35C120.549 165.814 120.582 165.224 120.582 164.572C120.582 163.651 120.442 162.955 120.192 162.414C119.994 162.289 119.79 162.162 119.579 162.032C118.798 161.547 117.938 161.013 117.054 160.322C117.051 160.322 117.049 160.321 117.047 160.32C116.975 160.298 116.902 160.276 116.828 160.254C116.638 160.196 116.444 160.137 116.247 160.075C114.873 159.64 113.375 159.05 112.082 157.572C111.644 157.072 111.207 156.509 110.776 155.908C107.762 151.697 105.084 145.572 105.084 145.572L105.099 145.734C105.192 146.752 105.298 147.917 105.357 149.177Z" fill="black"/>
<path d="M120.451 169.704C120.231 171.417 119.775 172.54 119.45 173.342C119.238 173.864 119.082 174.249 119.082 174.572C119.335 174.206 119.628 173.814 119.938 173.397C121.466 171.346 123.415 168.732 123.082 166.072C123.044 165.772 122.982 165.497 122.896 165.243C122.869 165.341 122.839 165.439 122.808 165.537C122.329 167.028 121.369 168.451 120.451 169.704Z" fill="black"/>
<path d="M110.09 138.543C110.162 138.172 110.889 134.263 110.707 129.727C110.7 129.928 110.691 130.125 110.681 130.319C110.534 133.171 110.142 135.275 110.09 135.543C110.086 135.562 110.084 135.572 110.084 135.572C110.084 135.572 110.035 136.746 110.09 138.543Z" fill="black"/>
<path d="M94.6296 101.488C95.3336 86.2802 103.673 76.7614 110.65 68.7984C111.911 67.3587 113.128 65.9697 114.247 64.6073C114.255 64.5319 114.263 64.4571 114.272 64.3831C114.527 62.1605 115.082 60.5719 115.082 60.5719C113.828 62.1603 112.421 63.7766 110.946 65.4607C110.847 65.573 110.749 65.6855 110.65 65.7984C103.36 74.119 94.5817 84.1383 94.5817 100.572C94.5817 100.885 94.598 101.19 94.6296 101.488Z" fill="black"/>
<path d="M114.212 67.9877C113.977 70.7741 114.28 74.348 116.584 77.0715C118.383 79.1967 120.84 80.627 123.485 82.1664C128.929 85.3354 135.167 88.9664 138.082 100.072C138.54 98.4664 138.657 96.7296 138.486 94.9516C138.483 94.9822 138.48 95.0128 138.477 95.0434C138.4 95.7374 138.269 96.4156 138.082 97.0719C137.9 96.3778 137.704 95.7129 137.497 95.0755C134.39 85.5144 128.589 82.1374 123.485 79.1664C123.319 79.0702 123.155 78.9744 122.991 78.8789C120.535 77.4455 118.27 76.0638 116.584 74.0715C116.447 73.909 116.317 73.7435 116.193 73.5753C114.939 71.8676 114.387 69.8837 114.212 67.9877Z" fill="black"/>
<path d="M121.551 66.2659C121.789 65.2783 122.288 64.366 123.082 63.5719C125.417 61.2369 126.56 57.8798 126.013 54.9922C126.001 55.0621 125.988 55.1319 125.974 55.2017C125.59 57.15 124.582 59.0719 123.082 60.5719C121.529 62.1249 121.106 64.1302 121.551 66.2659Z" fill="black"/>
<path d="M84.7353 85.2654C86.1006 80.3516 88.161 75.8523 90.4506 71.8372C73.8653 86.3981 62.4009 106.852 62.4009 131V215.238C64.0104 212.274 65.4104 209.271 65.9009 206C67.278 196.817 66.2276 194.11 65.257 191.608C64.4656 189.568 63.7272 187.665 64.4009 182.5C65.4326 174.59 69.0661 169.756 71.2344 167.508L70.4009 131C70.4009 114.031 75.7248 98.2801 84.7353 85.2654Z" fill="black"/>
<path d="M83.0564 98.9663C83.0628 99.1492 83.0703 99.3324 83.079 99.5159C83.0799 99.5346 83.0808 99.5533 83.0817 99.5719C83.5971 110.108 88.0739 114.436 92.1684 118.395C95.7984 121.905 99.1279 125.124 99.1294 132.121C99.1295 132.587 99.1148 133.071 99.0845 133.572C99.0826 133.603 99.0807 133.634 99.0789 133.665L99.0786 133.669C98.6476 127.66 95.5374 124.653 92.1684 121.395C88.0739 117.436 83.5971 113.108 83.0817 102.572C83.0221 101.353 83.0153 100.151 83.0564 98.9663Z" fill="black"/>
<path d="M71.2492 168.158C70.0077 170.265 68.3618 174.178 67.4009 181C66.6374 186.421 67.4818 188.372 68.3609 190.404C69.4278 192.87 70.5456 195.453 68.9005 204.5C69.1961 204.282 69.4844 204.072 69.7675 203.866C70.5457 203.298 71.2844 202.759 72.0258 202.172L71.3152 171.047C72.2245 169.533 72.9009 169 72.9009 169C72.9009 169 72.2494 169.465 71.3013 170.439L71.2492 168.158Z" fill="black"/>
<path d="M73.9605 203.508C73.4182 204.268 72.8178 205.061 72.155 205.877C71.0756 207.205 69.8305 208.594 68.4009 210C68.2071 212.326 66.8866 214.576 65.371 217.159C64.3773 218.852 63.2997 220.689 62.4009 222.783V242.8C63.011 244.157 63.7072 245.345 64.4148 246.553C65.9375 249.152 67.5135 251.842 68.4009 256.5C70.0696 265.259 68.2577 268.8 66.7404 271.765C66.439 272.354 66.1491 272.92 65.9005 273.5L73.5758 270.059L72.1782 208.848C76.8379 203.106 78.4009 198.5 78.4009 198.5C76.6783 200.739 75.2647 202.286 73.9605 203.508Z" fill="black"/>
<path d="M92.1977 248.893C89.3523 252.855 86.4006 258.525 86.4006 265L86.6246 264.888C88.1875 253.957 97.4006 246 97.4006 246C97.4006 246 95.1175 246.734 92.1977 248.893Z" fill="black"/>
<path d="M103.384 262.476C102.428 263.986 100.401 265 100.401 265C100.401 265 94.4006 270 76.4005 278C76.8338 278.607 77.6276 280.096 78.571 282.006C79.3697 283.518 80.1409 284.994 80.4009 285.496C97.3469 277.852 101.401 273.5 101.401 273.5C101.401 273.5 105.401 265.5 103.401 262.5L103.384 262.476Z" fill="black"/>
<path d="M82.4155 294.442C82.3011 295.39 82.1013 296.28 81.909 297.136C81.6478 298.299 81.4005 299.399 81.4005 300.5C81.4005 300.805 81.4676 301.1 81.5908 301.387C81.6018 301.413 81.6132 301.438 81.6251 301.464C81.7086 301.028 81.8077 300.587 81.909 300.136C82.2908 298.436 82.7027 296.603 82.4155 294.442Z" fill="black"/>
<path d="M181.901 268C182.157 263.382 181.229 261.528 180.197 259.467C179.279 257.634 178.278 255.636 177.956 251.382C177.945 251.236 177.935 251.087 177.925 250.936C177.866 251.747 177.856 252.6 177.901 253.5C178.144 258.369 179.217 260.511 180.197 262.467C180.971 264.013 181.686 265.442 181.888 268.007L181.901 268Z" fill="black"/>
<path d="M185.862 234.005C184.134 235.659 182.296 237.419 180.819 239.599C179.92 239.409 179.02 239.173 178.113 238.935C175.486 238.247 172.799 237.543 169.901 237.884C163.101 238.684 141.901 243.882 137.901 248C139.097 245.31 145.368 241.19 151.671 237.884C151.934 237.784 152.197 237.685 152.46 237.587C158.021 235.52 163.713 233.875 166.901 233.5C173.701 232.7 183.734 232.167 187.901 232C187.262 232.664 186.572 233.325 185.864 234.003L185.863 234.004C185.863 234.004 185.862 234.004 185.862 234.005Z" fill="black"/>
<path d="M200.305 215.329C200.601 213.659 200.596 211.797 199.401 211C198.128 210.151 196.674 210.383 195.155 210.626C193.096 210.954 190.915 211.302 188.901 209C188.077 208.058 187.613 207.228 187.373 206.475C187.366 206.455 187.36 206.435 187.354 206.415C187.041 207.916 186.798 209.597 188.901 212C190.915 214.302 193.096 213.954 195.155 213.626C196.674 213.383 198.128 213.151 199.401 214C199.863 214.308 200.147 214.775 200.305 215.329Z" fill="black"/>
<path d="M187.357 203.398C187.358 203.398 187.358 203.397 187.358 203.396C187.363 203.372 187.368 203.348 187.373 203.325" fill="black"/>
<path d="M187.357 203.398C186.459 201.433 182.325 199.508 177.901 200C180.081 198.443 183.036 198.05 185.56 198.578C185.56 198.579 185.561 198.579 185.561 198.579C186.48 199.156 187.132 199.828 187.401 200.5C187.773 201.431 187.591 202.292 187.396 203.213C187.389 203.247 187.382 203.281 187.375 203.315" fill="black"/>
<path d="M62.4009 252.918V264.444C62.9429 263.11 63.3143 261.645 63.4009 260C63.5433 257.293 63.1175 255.033 62.4009 252.918Z" fill="black"/>
<path d="M62.4009 282.983V308.332C66.4572 308.14 70.9155 309.905 74.3576 311.43L73.9282 297.136C74.4009 297.5 75.4009 298.5 75.9009 300.5C75.9049 300.493 75.9089 300.486 75.9128 300.478C76.1355 299.611 76.472 298.714 76.8262 297.77C77.574 295.776 78.4006 293.571 78.4006 291C78.4006 287.787 76.0104 284.693 73.9302 282.499C73.9061 282.473 73.882 282.448 73.858 282.423C73.1912 281.723 72.5596 281.118 72.0533 280.633L72.0522 280.632C71.8002 280.391 71.5793 280.179 71.4005 280C69.1359 281.174 65.605 282.585 62.4009 282.983Z" fill="black"/>
<path d="M75.8415 303.773C75.7796 304.045 75.6829 304.401 75.5722 304.809C75.0874 306.594 74.3323 309.375 75.0352 310.5C75.7077 311.576 76.0937 312.11 76.7323 312.497C77.1534 312.684 77.5443 312.854 77.9006 313L83.4006 310.5C81.9006 310.667 78.4006 308.2 76.4005 305C76.155 304.607 75.977 304.214 75.8556 303.82C75.8508 303.804 75.8461 303.788 75.8415 303.773Z" fill="black"/>
<path d="M75.4106 333.638C71.4013 337.372 66.3799 339.968 62.4009 340.701V350H75.4009C78.0959 343.511 86.0011 340.782 93.9009 341.5C105.382 342.544 109.22 344.182 117.873 347.874L117.874 347.875L117.89 347.882L117.892 347.883C119.395 348.524 121.043 349.227 122.901 350H146.901C133.22 348.254 120.973 338.754 110.72 330.8C109.213 329.632 107.75 328.497 106.332 327.425C100.82 323.259 96.7284 320.166 94.9006 320C89.4006 319.5 84.9005 322.5 77.9006 331C77.135 331.93 76.2976 332.812 75.4106 333.638Z" fill="black"/>
<path d="M127.154 330.802C127.898 330.16 128.248 329.262 128.622 328.303C129.537 325.957 130.596 323.243 137.901 323C140.958 322.898 145.354 323.553 149.369 324.152C151.818 324.517 154.125 324.862 155.901 325C165.884 325.777 172.657 318.379 179.28 311.147C186.169 303.622 192.895 296.276 202.901 298.5C204.05 298.755 206.343 299.915 208.856 301.186C212.524 303.041 216.662 305.134 218.401 305C223.601 304.6 226.401 301 226.401 301C226.401 301 227.332 301.284 228.758 301.559L227.964 329.497C229.16 328.022 231.033 326.244 233.901 324C231.567 326.167 227.301 331.3 228.901 334.5C230.494 337.687 231.453 342.143 227.478 346.605C226.464 347.743 225.129 348.882 223.401 350H227.113C227.214 349.894 227.313 349.789 227.408 349.683L227.401 350H240.401V287.358C239.023 287.654 237.302 287.827 235.401 288C233.012 288.217 230.565 287.904 228.826 287.572C227.362 287.293 226.401 287 226.401 287C226.401 287 223.601 289.1 218.401 289.5C215.13 289.752 213.505 288.231 211.552 286.404C209.623 284.599 207.373 282.494 202.901 281.5C197.505 280.301 190.132 286.291 182.399 292.573C177.233 296.77 171.906 301.097 166.901 303.5C158.506 307.529 149.435 306.823 139.838 306.076H139.836C135.144 305.711 130.326 305.336 125.401 305.5C110.401 306 103.401 313 103.401 313C103.401 313 116.962 323.34 123.502 328.365C124.694 329.18 125.914 329.995 127.154 330.802Z" fill="black"/>
<path d="M229.345 272.241C229.678 271.984 230.029 271.737 230.401 271.5C233.883 269.284 237.767 268.07 240.401 268.112V221.415C238.073 224.391 234.495 228.848 230.049 234.018C220.217 245.451 206.134 260.373 191.901 270.5C171.04 285.343 157.797 290.101 146.748 294.071C144.026 295.049 141.437 295.979 138.901 297C143.567 298.667 152.901 301 162.901 297C168.178 294.889 173.811 290.64 179.387 286.433C187.02 280.676 194.544 275 200.901 275C202.588 275 204.088 275.165 205.433 275.442C218.3 266.278 220.503 264.511 229.979 253.5L229.345 272.241Z" fill="black"/>
<path d="M230.361 224.385C232.74 221.518 234.681 219.031 236.645 216.514C237.544 215.362 238.448 214.204 239.401 213C239.401 213 239.774 212.439 240.401 211.964V181.861C239.99 182.343 239.539 182.866 239.048 183.434C236.983 185.824 234.231 189.011 230.978 193.336C229.106 195.825 227.068 198.691 224.901 202C218.432 211.873 211.5 218.037 203.947 224.754C200.406 227.901 196.73 231.171 192.901 235C190.911 236.99 188.945 240.399 187.625 244.137C186.864 247.81 187.628 251.211 188.893 253.939C189.775 252.431 191.075 250.896 192.901 249.07C196.73 245.241 200.406 241.971 203.947 238.823C211.5 232.107 218.432 225.943 224.901 216.07C227.041 212.803 229.055 209.967 230.907 207.5L230.361 224.385Z" fill="black"/>
<path d="M231.239 181.87C233.81 179.19 236.401 176.5 238.401 174.5C238.401 174.5 239.323 173.885 240.401 173.678V145.577C237.786 143.502 234.701 142.611 231.609 142.354C227.373 142.001 223.123 142.836 220.044 143.441C220.044 143.441 220.044 143.441 220.044 143.441C218.471 143.75 217.204 143.999 216.401 143.999C211.78 143.999 208.867 141.116 207.07 138.014C205.079 135.805 204.401 133.5 204.401 133.5C204.401 133.5 206.402 146.999 216.401 146.999C217.204 146.999 218.471 146.75 220.044 146.441C223.235 145.814 227.685 144.939 232.072 145.397L231.239 181.87Z" fill="black"/>
<path d="M232.286 136.022L232.401 131C232.401 86.2649 195.401 50 151.401 50C142.616 50 134.111 51.4455 126.123 54.1153C126.178 53.3882 126.143 52.6677 126.01 51.9745C134.425 49.3755 143.035 48 151.401 48C192.901 48 240.401 81.8467 240.401 131V138.561C237.73 136.362 235.055 135.821 232.286 136.022Z" fill="black"/>
<path d="M240.401 274.791C239.6 275.232 238.731 275.5 237.901 275.5C231.901 275.5 230.401 281.5 230.401 281.5C233.535 283.329 236.534 282.837 238.896 282.45C239.432 282.362 239.936 282.279 240.401 282.23V274.791Z" fill="black"/>
<path d="M226.676 340.184C226.822 339.767 226.901 339.37 226.901 339C226.901 337.976 226.668 337.108 226.443 336.271C226.378 336.027 226.313 335.785 226.255 335.543C226.251 335.527 226.247 335.511 226.244 335.495C225.816 336.933 226.121 338.069 226.443 339.271C226.524 339.569 226.605 339.872 226.676 340.184Z" fill="black"/>
<path d="M62.4009 327.9L71.4005 322.5C69.561 321.843 65.7117 320.668 62.4009 320.2V327.9Z" fill="black"/>
<path d="M208.931 201.729C208.952 202.976 208.972 204.114 208.939 205.178L208.931 204.729C208.916 203.874 208.901 202.968 208.901 202C208.901 200.014 208.249 197.832 207.58 195.595C206.731 192.754 205.855 189.825 206.258 187.098C206.269 187.189 206.281 187.28 206.294 187.371C206.536 189.101 207.063 190.865 207.58 192.595C208.249 194.832 208.901 197.014 208.901 199C208.901 199.968 208.916 200.874 208.931 201.729Z" fill="black"/>
<path fill-rule="evenodd" clip-rule="evenodd" d="M207.236 184.271C207.276 184.202 207.317 184.134 207.359 184.066C207.373 184.044 207.387 184.022 207.401 184C207.348 184.157 207.304 184.321 207.268 184.492L207.255 184.409M207.236 184.271C207.236 184.271 207.236 184.271 207.236 184.271C207.238 184.288 207.24 184.304 207.242 184.321C207.243 184.322 207.243 184.324 207.243 184.325C207.247 184.353 207.251 184.38 207.255 184.407" fill="black"/>
</g>
<path d="M114.295 54.7219C111.31 56.1599 108.307 56.1155 107.588 54.6228C106.869 53.1301 108.706 50.7543 111.691 49.3163C114.677 47.8783 117.68 47.9226 118.399 49.4153C119.118 50.908 117.28 53.2839 114.295 54.7219Z" fill="white"/>
<path d="M83.3732 165.972C82.6381 166.326 81.8986 166.315 81.7216 165.948C81.5445 165.58 81.997 164.995 82.7321 164.641C83.4672 164.287 84.2067 164.298 84.3837 164.666C84.5608 165.033 84.1084 165.618 83.3732 165.972Z" fill="white"/>
<path d="M64.8097 331.794C63.3702 332.77 61.8077 332.977 61.3197 332.258C60.8318 331.538 61.6031 330.163 63.0426 329.187C64.4821 328.211 66.0447 328.004 66.5326 328.724C67.0206 329.443 66.2492 330.818 64.8097 331.794Z" fill="white"/>
<path d="M63.3517 314.766C60.6175 314.316 58.5835 312.843 58.8085 311.476C59.0336 310.108 61.4325 309.365 64.1667 309.815C66.9009 310.265 68.9349 311.738 68.7098 313.106C68.4848 314.473 66.0858 315.216 63.3517 314.766Z" fill="white"/>
<path d="M59.2591 274.078C58.7851 273.756 59.5407 271.817 60.9467 269.748C62.3526 267.678 63.8766 266.261 64.3505 266.583C64.8245 266.905 64.0689 268.844 62.6629 270.914C61.257 272.983 59.733 274.4 59.2591 274.078Z" fill="white"/>
<path d="M76.7473 270.66C76.5559 270.264 78.2269 269.061 80.4796 267.972C82.7323 266.883 84.7136 266.321 84.905 266.717C85.0965 267.113 83.4255 268.317 81.1728 269.406C78.9201 270.495 76.9388 271.056 76.7473 270.66Z" fill="white"/>
<path d="M140.925 291.027C140.636 290.429 145.234 287.607 151.196 284.726C157.158 281.844 162.226 279.993 162.515 280.591C162.804 281.19 158.206 284.011 152.244 286.893C146.282 289.775 141.214 291.626 140.925 291.027Z" fill="white"/>
<path d="M120.091 328.986C120.472 328.442 125.18 331.077 130.606 334.873C136.032 338.669 140.122 342.187 139.74 342.732C139.359 343.277 134.652 340.641 129.226 336.846C123.8 333.05 119.71 329.531 120.091 328.986Z" fill="white"/>
<path d="M183.081 285.87C182.705 285.322 184.975 283.114 188.15 280.939C191.326 278.763 194.204 277.445 194.58 277.993C194.956 278.542 192.686 280.75 189.511 282.925C186.336 285.1 183.457 286.419 183.081 285.87Z" fill="white"/>
<path d="M178.107 289.933C177.759 289.519 178.365 288.439 179.459 287.52C180.553 286.601 181.722 286.192 182.069 286.606C182.417 287.019 181.811 288.099 180.717 289.018C179.623 289.937 178.454 290.346 178.107 289.933Z" fill="white"/>
<path d="M229.03 275.076C228.683 274.663 229.288 273.582 230.383 272.664C231.477 271.745 232.645 271.335 232.993 271.749C233.34 272.163 232.735 273.243 231.64 274.162C230.546 275.081 229.377 275.49 229.03 275.076Z" fill="white"/>
<path d="M224.154 235.402C223.738 235.057 226.328 231.246 229.939 226.889C233.551 222.532 236.815 219.28 237.231 219.624C237.647 219.969 235.057 223.78 231.446 228.137C227.834 232.494 224.57 235.747 224.154 235.402Z" fill="white"/>
<path d="M211.154 211.402C210.738 211.057 213.328 207.246 216.939 202.889C220.551 198.532 223.815 195.28 224.231 195.624C224.647 195.969 222.057 199.78 218.446 204.137C214.834 208.494 211.57 211.747 211.154 211.402Z" fill="white"/>
<path d="M149.608 236.937C149.494 236.675 151.698 235.463 154.532 234.231C157.366 232.999 159.756 232.213 159.87 232.475C159.984 232.738 157.78 233.95 154.946 235.182C152.112 236.414 149.722 237.2 149.608 236.937Z" fill="white"/>
<path d="M162.901 231.5C162.891 231.214 167.469 229.627 173.722 229.404C179.974 229.18 185.051 229.232 185.061 229.518C185.071 229.804 180.011 230.216 173.759 230.439C167.506 230.662 162.911 231.786 162.901 231.5Z" fill="white"/>
<path d="M187.298 236.034C186.802 235.548 188.194 233.328 190.407 231.077C192.619 228.825 194.814 227.394 195.309 227.881C195.804 228.367 194.412 230.587 192.2 232.839C189.987 235.09 187.793 236.521 187.298 236.034Z" fill="white"/>
<path d="M179.744 249.27C179.002 249.068 178.822 247.359 179.341 245.452C179.859 243.546 180.881 242.164 181.623 242.366C182.364 242.567 182.545 244.277 182.026 246.183C181.507 248.09 180.485 249.472 179.744 249.27Z" fill="white"/>
<path d="M188.292 205.881C187.943 205.84 187.759 204.964 187.881 203.923C188.003 202.883 188.385 202.073 188.733 202.114C189.082 202.154 189.266 203.031 189.144 204.071C189.022 205.112 188.64 205.922 188.292 205.881Z" fill="white"/>
<path d="M180.479 197.993C180.436 197.812 181.025 197.517 181.794 197.333C182.564 197.149 183.222 197.146 183.265 197.326C183.308 197.507 182.72 197.802 181.95 197.986C181.181 198.17 180.522 198.173 180.479 197.993Z" fill="white"/>
<path d="M209.965 247.396C209.654 247.109 210.405 245.785 211.643 244.439C212.88 243.092 214.136 242.232 214.448 242.518C214.759 242.805 214.008 244.129 212.77 245.475C211.532 246.822 210.276 247.682 209.965 247.396Z" fill="white"/>
<path d="M233.965 181.396C233.654 181.109 234.405 179.785 235.643 178.439C236.88 177.092 238.136 176.232 238.448 176.518C238.759 176.805 238.008 178.129 236.77 179.475C235.532 180.822 234.276 181.682 233.965 181.396Z" fill="white"/>
<path d="M225.55 139.043C225.468 138.628 226.855 138.003 228.65 137.646C230.444 137.289 231.965 137.336 232.048 137.751C232.13 138.166 230.742 138.792 228.948 139.148C227.154 139.505 225.633 139.458 225.55 139.043Z" fill="white"/>
<path d="M233.516 137.806C233.58 137.361 234.143 137.073 234.773 137.163C235.404 137.253 235.864 137.687 235.8 138.132C235.737 138.578 235.174 138.866 234.543 138.776C233.912 138.686 233.453 138.252 233.516 137.806Z" fill="white"/>
<path d="M94.1434 306.416C93.7333 305.374 100.53 301.724 109.325 298.264C118.12 294.805 125.581 292.845 125.992 293.888C126.402 294.93 119.605 298.58 110.81 302.039C102.015 305.499 94.5535 307.459 94.1434 306.416Z" fill="white"/>
<path d="M165.993 277.767C165.73 277.311 167.555 275.767 170.069 274.319C172.583 272.87 174.834 272.065 175.097 272.521C175.359 272.977 173.534 274.521 171.021 275.969C168.507 277.418 166.256 278.223 165.993 277.767Z" fill="white"/>
<path d="M56.7655 278.541C56.2078 278.391 55.9464 277.558 56.1817 276.679C56.417 275.801 57.0599 275.21 57.6177 275.359C58.1755 275.509 58.4368 276.342 58.2015 277.22C57.9662 278.099 57.3233 278.69 56.7655 278.541Z" fill="white"/>
<path d="M63.0009 217.987C61.6234 220.391 60.2592 222.199 59.9538 222.024C59.6485 221.849 60.5176 219.758 61.8951 217.354C63.2726 214.949 64.6369 213.142 64.9422 213.317C65.2476 213.492 64.3784 215.583 63.0009 217.987Z" fill="white"/>
<path d="M87.5794 103.59C87.9643 105.572 87.7209 107.287 87.0357 107.42C86.3505 107.553 85.483 106.054 85.0981 104.071C84.7131 102.089 84.9565 100.374 85.6417 100.241C86.3269 100.108 87.1944 101.607 87.5794 103.59Z" fill="white"/>
<path d="M102.121 137.037C102.309 139.819 102.153 142.095 101.772 142.12C101.391 142.146 100.93 139.912 100.742 137.13C100.554 134.348 100.71 132.072 101.09 132.047C101.471 132.021 101.932 134.255 102.121 137.037Z" fill="white"/>
<path d="M59.0823 224.869C58.6556 225.614 58.1062 226.101 57.8552 225.957C57.6043 225.814 57.7467 225.093 58.1734 224.349C58.6001 223.604 59.1494 223.117 59.4004 223.26C59.6514 223.404 59.509 224.125 59.0823 224.869Z" fill="white"/>
<path d="M65.6881 183.704C65.548 184.551 65.2031 185.199 64.9177 185.152C64.6324 185.105 64.5146 184.38 64.6547 183.533C64.7948 182.687 65.1397 182.038 65.4251 182.086C65.7105 182.133 65.8282 182.858 65.6881 183.704Z" fill="white"/>
<path d="M81.0773 167.44C80.8522 167.817 80.3858 167.953 80.0355 167.744C79.6851 167.535 79.5835 167.06 79.8085 166.683C80.0336 166.306 80.5 166.17 80.8503 166.379C81.2007 166.588 81.3023 167.063 81.0773 167.44Z" fill="white"/>
<path d="M60.4259 335.604C60.0691 336.47 59.1282 336.902 58.3243 336.571C57.5204 336.239 57.158 335.269 57.5148 334.404C57.8716 333.539 58.8125 333.106 59.6164 333.438C60.4203 333.769 60.7827 334.739 60.4259 335.604Z" fill="white"/>
<path d="M100.776 68.2225C97.0244 73.5899 93.1812 77.3806 92.1921 76.6892C91.2029 75.9979 93.4424 71.0862 97.194 65.7187C100.946 60.3513 104.789 56.5606 105.778 57.252C106.767 57.9434 104.528 62.855 100.776 68.2225Z" fill="white"/>
<path d="M223.548 345.145C223.201 344.731 223.807 343.651 224.901 342.732C225.995 341.813 227.164 341.404 227.511 341.817C227.859 342.231 227.253 343.311 226.159 344.23C225.064 345.149 223.896 345.558 223.548 345.145Z" fill="white"/>
<g opacity="0.5">
<path d="M101.136 81C106.077 77.1908 108.041 76.6621 114.838 73.9763C113.725 71.3278 114.253 64.5916 114.253 64.5916C109.599 70.2723 106.432 72.8631 101.136 81Z" fill="white"/>
<path d="M123.519 70.6163C131.555 68.3338 140.79 67 151.401 67C224.901 67 232.401 131 232.401 131C232.401 86.2649 196.136 50 151.401 50C142.576 50 133.989 51.5376 126.037 54.1465C126.037 56.1376 126.737 57.7401 124.626 61.6936C122.765 64.3613 122.189 63.9198 121.564 66.3278C121.868 67.7328 122.544 69.1927 123.519 70.6163Z" fill="white"/>
<path d="M83.0731 99.3863C82.8417 94.1971 83.5651 89.3106 84.8722 84.782C75.7494 97.8892 70.4009 113.82 70.4009 131C70.4009 131 72.2458 115.257 83.0731 99.3863Z" fill="white"/>
</g>
<ellipse cx="172.029" cy="72.5549" rx="27.5" ry="14" transform="rotate(19.9827 172.029 72.5549)" fill="white"/>
<ellipse cx="203.865" cy="99.5073" rx="12.0352" ry="6.127" transform="rotate(31.4582 203.865 99.5073)" fill="white"/>
<ellipse cx="205.222" cy="86.1207" rx="4.30972" ry="2.19404" transform="rotate(31.4582 205.222 86.1207)" fill="white"/>
<path opacity="0.2" d="M93.293 215.536C92.4371 216.651 91.7171 217.216 91.0698 217.464C90.4668 217.695 89.7438 217.72 88.7065 217.356C90.7297 221.287 93.1772 220.614 95.6729 217.363C96.0771 216.836 96.643 216.614 97.3346 216.589C98.1274 216.561 98.56 216.623 98.8972 217.302C99.1616 217.834 99.5231 218.466 99.9597 219.075C100.389 219.674 100.934 220.31 101.578 220.795C102.214 221.274 103.091 221.709 104.124 221.616C105.211 221.518 106.076 221.313 106.694 221.167C106.88 221.123 107.043 221.084 107.184 221.055C107.754 220.937 108.139 220.913 108.78 221.127C109.222 221.274 109.371 221.402 109.646 221.637C109.773 221.746 109.927 221.878 110.15 222.046C110.289 222.15 110.442 222.254 110.615 222.348C110.664 222.534 110.718 222.754 110.773 223C110.912 223.63 111.047 224.395 111.122 225.15C111.198 225.922 111.203 226.607 111.124 227.109C111.082 227.377 111.031 227.508 111.006 227.561C110.419 227.894 109.993 228.036 109.511 228.197C109.296 228.269 109.069 228.345 108.811 228.443C108.4 228.6 107.937 228.816 107.488 229.188C105.238 231.052 107.969 232.734 106.29 236.722C106.981 236.42 107.556 236.03 107.969 235.485C108.389 234.931 108.536 234.357 108.607 233.904C108.655 233.599 108.679 233.363 108.699 233.164C108.743 232.726 108.769 232.466 108.994 232.045C109.166 231.725 109.305 231.579 109.402 231.499C109.501 231.416 109.63 231.342 109.881 231.246C109.981 231.208 110.109 231.165 110.261 231.115C110.814 230.931 111.679 230.643 112.607 230.1C113.64 229.496 113.966 228.352 114.088 227.574C114.224 226.71 114.194 225.738 114.107 224.856C113.979 223.554 113.698 222.21 113.45 221.346C113.647 221.005 113.918 220.664 114.225 220.45C114.425 220.312 114.61 220.247 114.788 220.236C114.962 220.225 115.235 220.258 115.63 220.481C118.896 222.322 122.22 219.075 121.254 217.559C120.746 218.549 120.301 218.757 119.944 218.805C119.435 218.873 118.563 218.691 117.103 217.867C116.276 217.401 115.433 217.191 114.604 217.242C113.782 217.292 113.079 217.594 112.513 217.987C112.042 218.314 111.649 218.716 111.329 219.132C110.95 218.846 110.416 218.51 109.729 218.281C108.457 217.857 107.512 217.924 106.578 218.117C106.324 218.169 106.091 218.224 105.86 218.279C105.277 218.417 104.707 218.551 103.854 218.628C103.845 218.629 103.699 218.637 103.382 218.398C103.071 218.164 102.731 217.792 102.398 217.327C102.071 216.871 101.79 216.381 101.584 215.967C100.669 214.126 99.3196 213.516 97.2274 213.591C95.9146 213.638 94.3892 214.108 93.293 215.536Z" fill="black"/>
<path opacity="0.2" d="M152.017 259.353C151.812 258.859 151.763 258.514 151.805 258.253C151.843 258.011 151.973 257.768 152.29 257.495C150.609 257.414 150.365 258.348 150.962 259.79C151.059 260.023 151.024 260.252 150.901 260.485C150.759 260.752 150.656 260.882 150.369 260.864C150.143 260.85 149.866 260.849 149.582 260.877C149.302 260.905 148.989 260.963 148.707 261.083C148.428 261.202 148.118 261.408 147.952 261.766C147.777 262.143 147.68 262.467 147.611 262.699C147.59 262.769 147.572 262.83 147.554 262.882C147.485 263.092 147.419 263.224 147.227 263.394C147.094 263.512 147.024 263.537 146.894 263.582C146.834 263.604 146.761 263.629 146.663 263.671C146.602 263.697 146.539 263.728 146.475 263.766C146.404 263.747 146.321 263.723 146.23 263.695C145.996 263.621 145.718 263.519 145.455 263.4C145.186 263.279 144.959 263.15 144.809 263.028C144.729 262.964 144.695 262.922 144.682 262.903C144.684 262.647 144.718 262.479 144.757 262.29C144.774 262.205 144.793 262.116 144.809 262.012C144.836 261.847 144.853 261.653 144.815 261.434C144.629 260.338 143.555 260.918 142.56 259.605C142.528 259.891 142.547 260.154 142.648 260.394C142.751 260.638 142.912 260.796 143.048 260.905C143.139 260.979 143.213 261.032 143.275 261.077C143.411 261.174 143.491 261.233 143.587 261.387C143.66 261.505 143.682 261.578 143.69 261.625C143.698 261.674 143.698 261.73 143.682 261.831C143.675 261.871 143.665 261.922 143.653 261.982C143.608 262.199 143.538 262.539 143.541 262.948C143.543 263.403 143.858 263.729 144.091 263.917C144.35 264.126 144.676 264.301 144.984 264.44C145.437 264.646 145.934 264.809 146.266 264.892C146.341 265.022 146.402 265.176 146.413 265.318C146.421 265.41 146.407 265.483 146.377 265.544C146.348 265.603 146.285 265.687 146.136 265.775C144.908 266.501 145.345 268.215 146.029 268.185C145.799 267.829 145.815 267.643 145.867 267.516C145.942 267.335 146.168 267.083 146.717 266.758C147.028 266.574 147.258 266.336 147.399 266.053C147.539 265.773 147.573 265.483 147.551 265.222C147.533 265.005 147.476 264.799 147.399 264.614C147.565 264.544 147.778 264.431 147.984 264.248C148.366 263.91 148.524 263.586 148.638 263.241C148.669 263.148 148.695 263.06 148.721 262.974C148.787 262.755 148.851 262.542 148.988 262.246C148.989 262.243 149.015 262.193 149.154 262.134C149.29 262.076 149.477 262.035 149.694 262.014C149.906 261.993 150.121 261.993 150.297 262.004C151.078 262.053 151.536 261.724 151.91 261.02C152.144 260.579 152.279 259.986 152.017 259.353Z" fill="black"/>
<path opacity="0.2" d="M219.711 174.295C220.699 174.394 221.306 174.616 221.695 174.912C222.058 175.188 222.342 175.613 222.509 176.371C224.116 173.695 222.802 172.476 219.923 172.187C219.456 172.141 219.113 171.884 218.841 171.478C218.529 171.012 218.405 170.73 218.687 170.275C218.908 169.918 219.154 169.466 219.357 168.978C219.557 168.497 219.736 167.934 219.787 167.367C219.838 166.807 219.773 166.119 219.333 165.534C218.871 164.918 218.426 164.475 218.108 164.158C218.013 164.063 217.929 163.979 217.859 163.906C217.577 163.607 217.419 163.385 217.309 162.921C217.233 162.601 217.254 162.464 217.293 162.212C217.311 162.095 217.333 161.953 217.351 161.757C217.362 161.635 217.367 161.504 217.359 161.366C217.453 161.267 217.565 161.152 217.692 161.029C218.018 160.711 218.427 160.345 218.853 160.02C219.288 159.687 219.697 159.429 220.027 159.29C220.204 159.215 220.302 159.198 220.343 159.193C220.761 159.421 221.004 159.624 221.28 159.853C221.404 159.956 221.534 160.064 221.688 160.182C221.935 160.37 222.237 160.568 222.627 160.699C224.582 161.357 224.577 159.092 227.594 158.617C227.156 158.314 226.708 158.115 226.228 158.069C225.739 158.023 225.34 158.148 225.042 158.274C224.841 158.359 224.69 158.432 224.563 158.494C224.284 158.631 224.118 158.712 223.782 158.733C223.526 158.749 223.387 158.72 223.303 158.692C223.216 158.662 223.123 158.613 222.973 158.498C222.913 158.452 222.839 158.391 222.752 158.318C222.436 158.055 221.942 157.643 221.271 157.288C220.525 156.892 219.717 157.122 219.205 157.338C218.636 157.578 218.063 157.957 217.566 158.337C216.832 158.898 216.13 159.567 215.704 160.037C215.426 160.046 215.12 160.009 214.878 159.904C214.72 159.836 214.613 159.749 214.54 159.646C214.469 159.546 214.387 159.37 214.374 159.05C214.264 156.405 211.08 155.617 210.529 156.761C211.312 156.697 211.603 156.887 211.764 157.084C211.994 157.364 212.209 157.955 212.258 159.138C212.286 159.808 212.473 160.392 212.811 160.87C213.147 161.345 213.59 161.655 214.036 161.848C214.408 162.009 214.795 162.096 215.163 162.133C215.133 162.466 215.13 162.912 215.248 163.41C215.466 164.331 215.858 164.873 216.321 165.362C216.446 165.495 216.566 165.614 216.685 165.732C216.985 166.031 217.277 166.323 217.64 166.807C217.644 166.812 217.703 166.896 217.678 167.176C217.653 167.449 217.556 167.791 217.401 168.164C217.249 168.53 217.06 168.881 216.887 169.159C216.122 170.392 216.258 171.429 217.081 172.657C217.597 173.427 218.447 174.168 219.711 174.295Z" fill="black"/>
<path opacity="0.2" d="M143.298 148.911C144.222 148.548 144.863 148.469 145.345 148.555C145.794 148.635 146.24 148.883 146.735 149.481C146.943 146.366 145.218 145.882 142.524 146.94C142.088 147.111 141.664 147.04 141.237 146.803C140.747 146.531 140.508 146.336 140.551 145.802C140.585 145.384 140.597 144.87 140.555 144.343C140.513 143.824 140.415 143.241 140.202 142.714C139.992 142.192 139.62 141.609 138.961 141.289C138.268 140.953 137.67 140.762 137.243 140.625C137.115 140.584 137.002 140.548 136.906 140.515C136.519 140.378 136.277 140.252 135.967 139.89C135.753 139.64 135.709 139.508 135.629 139.266C135.592 139.154 135.546 139.017 135.473 138.835C135.427 138.721 135.372 138.603 135.302 138.483C135.339 138.352 135.387 138.199 135.443 138.031C135.589 137.599 135.786 137.087 136.016 136.603C136.251 136.109 136.497 135.693 136.727 135.418C136.85 135.271 136.929 135.21 136.963 135.188C137.44 135.2 137.749 135.269 138.099 135.347C138.256 135.382 138.421 135.419 138.612 135.453C138.918 135.508 139.276 135.546 139.684 135.484C141.723 135.176 140.684 133.164 143.152 131.364C142.624 131.295 142.134 131.321 141.686 131.5C141.23 131.682 140.932 131.976 140.724 132.224C140.584 132.391 140.484 132.525 140.399 132.639C140.213 132.887 140.103 133.035 139.813 133.207C139.592 133.339 139.456 133.377 139.368 133.39C139.278 133.403 139.172 133.401 138.986 133.368C138.912 133.355 138.818 133.334 138.708 133.309C138.307 133.219 137.679 133.078 136.92 133.068C136.075 133.057 135.461 133.631 135.104 134.057C134.707 134.53 134.371 135.129 134.103 135.694C133.706 136.528 133.387 137.444 133.222 138.057C132.979 138.191 132.69 138.299 132.427 138.316C132.255 138.327 132.12 138.299 132.008 138.241C131.899 138.184 131.746 138.065 131.588 137.786C130.283 135.483 127.09 136.236 127.122 137.505C127.79 137.091 128.135 137.127 128.369 137.228C128.701 137.373 129.162 137.801 129.746 138.83C130.076 139.414 130.509 139.848 131.029 140.119C131.545 140.388 132.08 140.461 132.565 140.429C132.969 140.403 133.353 140.303 133.698 140.168C133.824 140.479 134.024 140.877 134.356 141.266C134.971 141.985 135.568 142.289 136.202 142.512C136.375 142.573 136.536 142.625 136.695 142.676C137.099 142.805 137.492 142.931 138.036 143.195C138.042 143.198 138.133 143.246 138.238 143.506C138.341 143.761 138.411 144.109 138.443 144.512C138.475 144.907 138.467 145.306 138.44 145.631C138.323 147.078 138.917 147.938 140.21 148.655C141.021 149.105 142.115 149.376 143.298 148.911Z" fill="black"/>
<path opacity="0.2" d="M203.43 320.605C202.574 319.49 202.214 318.648 202.143 317.959C202.076 317.317 202.239 316.612 202.859 315.704C198.538 316.641 198.554 319.179 201.049 322.431C201.453 322.958 201.522 323.562 201.367 324.237C201.189 325.01 201.016 325.412 200.274 325.562C199.691 325.679 198.987 325.865 198.286 326.129C197.595 326.389 196.841 326.75 196.206 327.247C195.579 327.737 194.931 328.472 194.753 329.493C194.567 330.569 194.541 331.457 194.522 332.092C194.517 332.283 194.512 332.451 194.504 332.594C194.47 333.175 194.393 333.554 194.021 334.117C193.764 334.506 193.602 334.617 193.304 334.822C193.166 334.916 192.998 335.031 192.778 335.203C192.642 335.31 192.502 335.432 192.367 335.574C192.174 335.574 191.947 335.569 191.696 335.558C191.051 335.529 190.277 335.462 189.528 335.338C188.764 335.212 188.101 335.04 187.636 334.834C187.388 334.724 187.275 334.64 187.23 334.602C187.06 333.949 187.033 333.501 187.002 332.994C186.988 332.767 186.974 332.528 186.946 332.254C186.9 331.817 186.812 331.314 186.569 330.783C185.351 328.127 183.019 330.33 179.602 327.676C179.714 328.422 179.943 329.078 180.362 329.618C180.788 330.167 181.305 330.458 181.724 330.644C182.006 330.769 182.228 330.853 182.415 330.924C182.827 331.08 183.071 331.172 183.419 331.499C183.684 331.748 183.789 331.919 183.842 332.033C183.895 332.151 183.934 332.295 183.961 332.562C183.972 332.668 183.98 332.803 183.99 332.963C184.025 333.545 184.079 334.455 184.363 335.492C184.679 336.646 185.7 337.257 186.419 337.576C187.219 337.931 188.166 338.154 189.04 338.298C190.331 338.511 191.702 338.587 192.601 338.571C192.879 338.85 193.138 339.201 193.265 339.553C193.347 339.782 193.362 339.976 193.326 340.152C193.292 340.322 193.189 340.577 192.872 340.901C190.249 343.58 192.524 347.631 194.239 347.09C193.413 346.343 193.328 345.859 193.374 345.502C193.44 344.992 193.842 344.198 195.015 343C195.68 342.322 196.101 341.562 196.266 340.749C196.431 339.941 196.321 339.184 196.088 338.536C195.893 337.997 195.607 337.513 195.288 337.096C195.662 336.804 196.125 336.375 196.524 335.771C197.263 334.652 197.443 333.722 197.498 332.77C197.514 332.511 197.521 332.272 197.528 332.035C197.546 331.435 197.563 330.85 197.709 330.006C197.711 329.998 197.741 329.854 198.054 329.609C198.36 329.37 198.807 329.138 199.343 328.936C199.868 328.739 200.414 328.594 200.868 328.502C202.883 328.095 203.821 326.949 204.29 324.909C204.585 323.629 204.525 322.034 203.43 320.605Z" fill="black"/>
<path opacity="0.2" d="M181.532 131.898C183.532 129.003 185.226 127.501 186.719 126.999C188.129 126.525 189.732 126.839 191.896 128.724C191.896 128.724 189.875 124.656 186.062 125.406C182.25 126.156 180.834 127.49 178.579 130.912C177.817 132.067 177.046 132.662 176.358 132.954C175.671 133.246 174.949 133.287 174.201 133.138C172.829 132.865 171.477 131.967 170.541 131.078C170.528 130.951 170.513 130.814 170.496 130.669C170.547 129.794 170.622 128.885 170.728 127.935C171.392 121.958 175.195 118.073 179.926 115.604C184.687 113.119 190.223 112.171 193.843 112.073C193.843 112.073 183.447 111.692 178.188 114.438C174.149 116.546 170.662 118.861 168.879 123.083C168.81 122.849 168.74 122.615 168.668 122.383C168.071 120.463 167.32 118.521 166.407 117C165.557 115.583 164.289 114.058 162.488 113.858C160.371 113.623 158.671 113.824 157.411 113.972C157.021 114.018 156.673 114.059 156.369 114.081C155.701 114.128 155.189 114.102 154.685 113.952C154.182 113.802 153.585 113.5 152.815 112.855C151.982 112.156 151.345 111.408 150.762 110.723C149.188 108.871 148.005 107.481 144.387 108.78C145.475 108.759 146.059 108.952 146.413 109.162C146.77 109.373 147.057 109.697 147.396 110.261C147.526 110.478 147.664 110.742 147.82 111.038C148.134 111.633 148.517 112.362 149.042 113.115C149.009 113.143 148.977 113.172 148.946 113.202C148.161 113.959 148.187 115.055 148.604 115.993C148.799 116.429 149.079 116.882 149.415 117.348C149.941 118.077 148.13 117.508 147.348 117.262C147.187 117.212 147.07 117.175 147.025 117.166C146.47 117.054 145.861 116.964 145.324 116.968C144.656 116.973 143.936 117.144 143.544 117.737C143.198 118.26 143.025 118.816 142.948 119.067C142.832 119.441 142.31 119.399 141.905 119.366C141.797 119.357 141.697 119.349 141.615 119.349C141.35 119.351 140.952 119.378 140.553 119.593C140.131 119.822 139.846 120.185 139.654 120.607C141.283 120.137 142.404 120.473 143.197 120.711C143.736 120.873 144.123 120.989 144.415 120.775C144.766 120.431 144.939 119.985 145.082 119.527C145.258 118.967 145.802 119.1 146.315 119.226C146.41 119.249 146.504 119.273 146.595 119.291C146.921 119.357 147.248 119.448 147.575 119.538C148.895 119.903 150.199 120.264 151.263 118.968C151.551 118.618 151.758 118.151 151.742 117.592C151.727 117.053 151.509 116.544 151.174 116.08C150.885 115.679 150.696 115.36 150.585 115.111C150.525 114.976 150.496 114.883 150.502 114.813C150.626 114.928 150.755 115.042 150.889 115.154C151.896 115.998 152.848 116.536 153.831 116.828C154.813 117.119 155.723 117.134 156.581 117.074C157.07 117.039 157.532 116.985 157.996 116.93C159.199 116.789 160.414 116.646 162.157 116.84C162.431 116.87 163.037 117.214 163.834 118.543C164.568 119.767 165.236 121.449 165.803 123.273C166.11 124.262 166.379 125.263 166.609 126.217C165.594 126.421 164.777 127.185 164.246 128.124C163.922 128.699 163.649 129.384 163.408 130.142C163.031 131.327 162.171 128.845 161.8 127.773C161.723 127.553 161.668 127.392 161.641 127.335C161.309 126.626 160.906 125.874 160.46 125.281C159.903 124.543 159.119 123.883 158.138 123.936C157.271 123.982 156.51 124.249 156.168 124.369C155.656 124.548 155.274 123.933 154.977 123.456C154.897 123.328 154.824 123.211 154.756 123.121C154.536 122.828 154.177 122.407 153.61 122.142C153.008 121.86 152.369 121.843 151.742 121.977C153.607 123.401 154.157 124.924 154.546 126.001C154.81 126.733 155 127.259 155.478 127.407C156.15 127.514 156.788 127.339 157.416 127.121C158.182 126.854 158.482 127.569 158.766 128.243C158.818 128.368 158.87 128.492 158.924 128.608C159.119 129.024 159.289 129.463 159.458 129.901C160.139 131.67 160.812 133.416 163.13 133.531C163.757 133.563 164.445 133.407 165.054 132.93C165.642 132.469 166.027 131.807 166.267 131.052C166.474 130.401 166.673 129.928 166.859 129.599C167.006 129.338 167.109 129.226 167.242 129.227C167.348 129.822 167.43 130.349 167.487 130.781C167.237 135.619 167.696 139.524 168.085 142.828C168.242 144.166 168.388 145.405 168.47 146.568C168.636 148.91 168.563 150.985 167.929 153.121C167.295 155.257 166.069 157.554 163.788 160.276C162.231 162.135 160.619 163.555 158.991 164.727C158.611 164.616 158.236 164.452 157.932 164.23C157.649 164.023 157.454 163.787 157.341 163.516C157.231 163.249 157.157 162.85 157.268 162.246C157.668 160.049 157.707 158.043 156.915 156.465C156.053 154.75 154.421 153.917 152.422 153.634C155.523 156.425 155.246 157.604 154.678 160.026C154.561 160.525 154.431 161.077 154.316 161.707C154.117 162.799 154.209 163.795 154.571 164.668C154.917 165.499 155.472 166.129 156.083 166.593C155.082 167.174 154.084 167.703 153.098 168.226C151.955 168.832 150.829 169.429 149.734 170.086C148.674 170.723 147.651 171.417 146.714 172.237C146.475 172.059 146.187 171.963 145.896 171.865C145.421 171.705 144.938 171.544 144.652 171.022C144.294 170.37 144.894 169.703 145.352 169.193C145.965 168.512 146.12 167.609 145.729 166.74C145.628 166.516 145.505 166.309 145.384 166.106C145.06 165.56 144.756 165.049 144.978 164.361C145.071 164.072 145.144 163.698 145.081 163.241C145.022 162.82 144.861 162.428 144.656 162.055C144.656 163.375 144.395 164.413 143.984 165C143.767 165.31 143.91 165.689 144.082 166.147C144.335 166.82 144.652 167.662 143.984 168.704C142.863 170.454 142.807 170.904 142.922 171.469C143.214 172.226 143.563 172.813 144.686 173.188C145.327 173.401 144.484 174.722 144.146 175.252C144.102 175.322 144.066 175.377 144.044 175.415C142.603 177.845 141.864 180.965 141.944 185.219C141.86 180.749 147.58 174.877 151.278 172.659C152.169 172.124 153.16 171.6 154.216 171.042C155.531 170.346 156.949 169.597 158.405 168.704C158.278 169.179 158.177 169.759 158.185 170.429C158.202 172.001 158.634 173.013 159.211 173.984C159.366 174.245 159.519 174.487 159.673 174.73C160.072 175.36 160.475 175.995 160.917 176.979C160.97 177.096 161.017 177.359 160.853 177.868C160.691 178.367 160.375 178.944 159.957 179.534C159.546 180.114 159.077 180.652 158.668 181.068C156.989 182.775 156.845 184.423 157.732 186.72C158.288 188.16 159.384 189.649 161.36 190.308C161.877 190.481 162.354 190.624 162.799 190.757C165.218 191.483 166.687 191.925 168.552 195.252C168.562 193.316 168.086 191.652 166.946 190.294C165.837 188.973 164.233 188.104 162.309 187.462C161.411 187.163 160.862 186.5 160.53 185.639C160.112 184.556 160.039 183.953 160.807 183.172C161.308 182.661 161.886 182.001 162.405 181.267C162.918 180.542 163.418 179.687 163.707 178.79C163.994 177.901 164.128 176.803 163.653 175.748C163.114 174.55 162.549 173.658 162.131 172.999C162.001 172.795 161.886 172.614 161.79 172.452C161.403 171.8 161.194 171.303 161.184 170.396C161.177 169.756 161.29 169.468 161.465 169.022C161.54 168.831 161.626 168.612 161.719 168.324C161.85 167.917 161.949 167.447 161.92 166.888C162.617 166.44 163.624 165.853 164.699 165.358C165.577 164.955 166.401 164.66 167.057 164.543C167.587 164.448 167.796 164.504 167.84 164.516L167.847 164.517C168.542 165.117 168.916 165.604 169.319 166.128C169.487 166.346 169.659 166.571 169.862 166.812C170.196 167.212 170.605 167.632 171.174 167.978C171.746 168.326 172.19 168.5 172.969 168.625C173.355 168.625 173.724 168.378 174.195 168.063C175.223 167.375 176.738 166.362 179.978 166.872C179.375 166.218 178.738 165.749 178.012 165.512C177.275 165.27 176.613 165.323 176.086 165.417C175.755 165.476 175.487 165.539 175.251 165.595C174.688 165.728 174.303 165.818 173.655 165.714C173.179 165.637 172.91 165.523 172.733 165.415C172.552 165.305 172.386 165.154 172.161 164.886C172.067 164.773 171.958 164.631 171.832 164.466C171.393 163.895 170.746 163.051 169.775 162.218C168.807 161.389 167.527 161.421 166.601 161.577C168.771 158.867 170.083 156.404 170.805 153.975C171.581 151.362 171.642 148.888 171.463 146.356C171.367 145.008 171.208 143.655 171.043 142.243C170.776 139.973 170.492 137.552 170.426 134.766C171.367 135.356 172.452 135.848 173.616 136.08C174.847 136.325 176.196 136.282 177.53 135.715C177.88 135.567 178.22 135.386 178.55 135.172C178.695 135.534 178.896 135.852 179.048 136.091L179.072 136.128C179.093 136.161 179.113 136.193 179.133 136.223C179.339 136.541 179.44 136.698 179.19 137.052C178.987 137.339 178.773 137.524 178.58 137.692C178.246 137.983 177.972 138.222 177.911 138.841C177.862 139.343 177.901 140.083 178.181 140.808C178.474 141.566 179.082 142.416 180.205 142.791C180.808 142.992 181.045 143.182 181.141 143.297C181.208 143.376 181.302 143.526 181.3 143.945V143.96C181.3 143.959 181.303 143.954 181.307 143.945C181.375 143.796 181.925 142.588 180.516 141.719C179.02 140.797 178.891 138.734 179.906 138.156C180.922 137.578 182.516 135.715 181.529 134.397C181.282 134.009 181.341 133.715 181.48 133.284C181.573 132.995 181.646 132.621 181.583 132.164C181.57 132.074 181.553 131.986 181.532 131.898Z" fill="black"/>
</svg>
